<?xml version="1.0" standalone="no"?>
<!DOCTYPE svg PUBLIC "-//W3C//DTD SVG 1.1//EN" "http://www.w3.org/Graphics/SVG/1.1/DTD/svg11.dtd">
<svg xmlns="http://www.w3.org/2000/svg">
<metadata>Generated by Fontastic.me</metadata>
<defs>
<font id="apnscp" horiz-adv-x="512">
<font-face font-family="apnscp" units-per-em="512" ascent="480" descent="-32"/>
<missing-glyph horiz-adv-x="512" />

<glyph glyph-name="zend-framework" unicode="&#97;" d="M214 189c-33-1-66-1-99-1l-4 0c45 64 90 125 136 187-2 0-3 0-3 0-72 0-143 0-215 0-2 0-3 0-3-3 0-15 0-29 0-44 0-4 0-4 4-4 36 0 73 0 109 0 1 0 3-1 5-1-46-62-91-124-137-186l2 0c69 0 138 0 206 0 3 0 3 1 3 3 0 15 0 30 0 45 0 3 0 4-4 4z m287 183c-65 0-129 0-194 0-7 0-15-1-22-3-25-6-45-33-44-59 1-3 2-2 4-2l99 0c17 0 34-1 50-1 19 0 37 0 55 1 19 1 34 10 44 26 7 11 10 23 12 35 0 4-2 3-4 3z m-99-84c-32 0-65 0-98 0-11 0-21-3-30-8-22-11-30-31-32-55-1-3 1-3 3-3 17 1 35 1 52 1 6 0 12-1 17 0 13 0 26-1 39 1 17 1 30 9 40 23 7 11 11 23 12 37 1 3 1 4-3 4z m-65-85c-10 0-20 0-30 0-5 0-10 0-14-1-36-5-49-35-51-61-1-2 0-3 2-3 6 0 12 0 18 0l0 0c8 0 17 0 25 1 30 4 53 31 53 62 0 2-1 2-3 2z"/>
<glyph glyph-name="wrench" unicode="&#98;" d="M128 91c0 5-2 10-5 13-4 4-8 6-13 6-5 0-10-2-13-6-4-3-6-8-6-13 0-5 2-9 6-12 3-4 8-6 13-6 5 0 9 2 13 6 3 3 5 7 5 12z m184 120l-195-194c-7-7-15-11-26-11-9 0-18 4-26 11l-30 30c-7 7-11 16-11 26 0 10 4 19 11 26l195 195c7-19 18-35 32-50 15-14 31-25 50-33z m181 125c0-8-2-18-6-31-9-25-25-46-47-62-23-16-47-24-74-24-36 0-66 13-91 38-25 25-37 55-37 90 0 36 12 66 37 91 25 25 55 37 91 37 11 0 22-1 34-4 13-3 23-8 31-14 3-2 5-4 5-8 0-3-2-5-5-8l-84-48 0-64 56-30c1 0 8 5 22 13 14 9 27 17 39 24 12 6 18 10 20 10 3 0 5-1 7-3 1-2 2-4 2-7z"/>
<glyph glyph-name="wikipedia-w" unicode="&#100;" d="M354 44l-85 198c-4-9-19-38-45-87-25-49-44-86-57-111 0 0-2-1-7-2-5 0-8 0-8 1-16 36-40 92-73 167-33 75-58 132-74 171-4 9-10 19-19 30-9 11-19 21-30 29-11 8-20 12-29 12 0 1 0 4 0 7 0 4 0 6 0 8l166 0 0-14c-7-1-15-2-22-5-8-3-14-7-19-12-5-6-6-12-3-18 5-12 25-59 62-143 36-84 58-135 67-154 6 11 19 37 40 76 21 39 33 63 37 71-3 7-15 34-36 80-20 46-33 74-38 84-8 13-27 20-58 20l0 15 147-1 0-13c-12 0-21-3-27-7-6-5-8-11-4-20 7-13 15-31 25-54 11-23 19-41 25-54 21 41 37 76 49 104 5 11 4 18-3 23-6 5-18 7-36 7 0 2 0 4 0 8l0 6c12 0 28 0 49 1 20 0 37 0 51 0 14 0 23 0 26 0l0-14c-11 0-23-4-34-9-10-6-19-14-25-24l-61-126c2-6 14-34 36-83 22-49 34-75 35-78l126 291c-3 7-7 13-14 17-7 5-13 8-19 9-5 2-11 3-16 3l0 14 132-1 0-1 0-12c-27-1-46-15-58-42-100-231-153-354-159-369l-14 0z"/>
<glyph glyph-name="align-center" unicode="&#103;" d="M512 128l0-37c0-5-2-9-5-12-4-4-8-6-13-6l-476 0c-5 0-9 2-13 6-3 3-5 7-5 12l0 37c0 5 2 9 5 13 4 3 8 5 13 5l476 0c5 0 9-2 13-5 3-4 5-8 5-13z m-110 110l0-37c0-5-2-9-5-13-4-3-8-5-13-5l-256 0c-5 0-9 2-13 5-3 4-5 8-5 13l0 37c0 5 2 9 5 13 4 3 8 5 13 5l256 0c5 0 9-2 13-5 3-4 5-8 5-13z m73 109l0-36c0-5-1-9-5-13-4-4-8-5-13-5l-402 0c-5 0-9 1-13 5-4 4-5 8-5 13l0 36c0 5 1 10 5 13 4 4 8 6 13 6l402 0c5 0 9-2 13-6 4-3 5-8 5-13z m-109 110l0-36c0-5-2-10-6-13-3-4-8-6-13-6l-182 0c-5 0-10 2-13 6-4 3-6 8-6 13l0 36c0 5 2 9 6 13 3 4 8 5 13 5l182 0c5 0 10-1 13-5 4-4 6-8 6-13z"/>
<glyph glyph-name="align-justify" unicode="&#104;" d="M512 128l0-37c0-5-2-9-5-12-4-4-8-6-13-6l-476 0c-5 0-9 2-13 6-3 3-5 7-5 12l0 37c0 5 2 9 5 13 4 3 8 5 13 5l476 0c5 0 9-2 13-5 3-4 5-8 5-13z m0 110l0-37c0-5-2-9-5-13-4-3-8-5-13-5l-476 0c-5 0-9 2-13 5-3 4-5 8-5 13l0 37c0 5 2 9 5 13 4 3 8 5 13 5l476 0c5 0 9-2 13-5 3-4 5-8 5-13z m0 109l0-36c0-5-2-9-5-13-4-4-8-5-13-5l-476 0c-5 0-9 1-13 5-3 4-5 8-5 13l0 36c0 5 2 10 5 13 4 4 8 6 13 6l476 0c5 0 9-2 13-6 3-3 5-8 5-13z m0 110l0-36c0-5-2-10-5-13-4-4-8-6-13-6l-476 0c-5 0-9 2-13 6-3 3-5 8-5 13l0 36c0 5 2 9 5 13 4 4 8 5 13 5l476 0c5 0 9-1 13-5 3-4 5-8 5-13z"/>
<glyph glyph-name="align-left" unicode="&#105;" d="M512 128l0-37c0-5-2-9-5-12-4-4-8-6-13-6l-476 0c-5 0-9 2-13 6-3 3-5 7-5 12l0 37c0 5 2 9 5 13 4 3 8 5 13 5l476 0c5 0 9-2 13-5 3-4 5-8 5-13z m-110 110l0-37c0-5-2-9-5-13-4-3-8-5-13-5l-366 0c-5 0-9 2-13 5-3 4-5 8-5 13l0 37c0 5 2 9 5 13 4 3 8 5 13 5l366 0c5 0 9-2 13-5 3-4 5-8 5-13z m73 109l0-36c0-5-1-9-5-13-4-4-8-5-13-5l-439 0c-5 0-9 1-13 5-3 4-5 8-5 13l0 36c0 5 2 10 5 13 4 4 8 6 13 6l439 0c5 0 9-2 13-6 4-3 5-8 5-13z m-109 110l0-36c0-5-2-10-6-13-3-4-8-6-13-6l-329 0c-5 0-9 2-13 6-3 3-5 8-5 13l0 36c0 5 2 9 5 13 4 4 8 5 13 5l329 0c5 0 10-1 13-5 4-4 6-8 6-13z"/>
<glyph glyph-name="align-right" unicode="&#106;" d="M512 128l0-37c0-5-2-9-5-12-4-4-8-6-13-6l-476 0c-5 0-9 2-13 6-3 3-5 7-5 12l0 37c0 5 2 9 5 13 4 3 8 5 13 5l476 0c5 0 9-2 13-5 3-4 5-8 5-13z m0 110l0-37c0-5-2-9-5-13-4-3-8-5-13-5l-366 0c-5 0-9 2-13 5-3 4-5 8-5 13l0 37c0 5 2 9 5 13 4 3 8 5 13 5l366 0c5 0 9-2 13-5 3-4 5-8 5-13z m0 109l0-36c0-5-2-9-5-13-4-4-8-5-13-5l-439 0c-5 0-9 1-13 5-4 4-5 8-5 13l0 36c0 5 1 10 5 13 4 4 8 6 13 6l439 0c5 0 9-2 13-6 3-3 5-8 5-13z m0 110l0-36c0-5-2-10-5-13-4-4-8-6-13-6l-329 0c-5 0-10 2-13 6-4 3-6 8-6 13l0 36c0 5 2 9 6 13 3 4 8 5 13 5l329 0c5 0 9-1 13-5 3-4 5-8 5-13z"/>
<glyph glyph-name="ambulance" unicode="&#108;" d="M165 110c0 10-4 18-11 26-7 7-16 10-26 10-10 0-19-3-26-10-7-8-11-16-11-26 0-10 4-19 11-26 7-7 16-11 26-11 10 0 19 4 26 11 7 7 11 16 11 26z m-110 146l110 0 0 73-46 0c-2 0-4-1-6-2l-56-56c-1-2-2-5-2-6z m366-146c0 10-4 18-11 26-7 7-16 10-26 10-10 0-19-3-26-10-7-8-11-16-11-26 0-10 4-19 11-26 7-7 16-11 26-11 10 0 19 4 26 11 7 7 11 16 11 26z m36 192l0 55c0 2-1 4-2 6-2 2-4 3-7 3l-64 0 0 64c0 2-1 5-3 6-1 2-3 3-6 3l-55 0c-3 0-5-1-7-3-1-1-2-4-2-6l0-64-64 0c-3 0-5-1-7-3-1-2-2-4-2-6l0-55c0-3 1-5 2-7 2-2 4-2 7-2l64 0 0-64c0-3 1-5 2-7 2-2 4-3 7-3l55 0c3 0 5 1 6 3 2 2 3 4 3 7l0 64 64 0c3 0 5 0 7 2 1 2 2 4 2 7z m73 155l0-329c0-5-2-9-5-13-4-3-8-5-13-5l-55 0c0-20-7-38-21-52-15-14-32-21-52-21-20 0-37 7-52 21-14 14-21 32-21 52l-110 0c0-20-7-38-21-52-15-14-32-21-52-21-20 0-37 7-52 21-14 14-21 32-21 52l-37 0c-5 0-9 2-13 5-3 4-5 8-5 13 0 5 2 9 5 13 4 3 8 5 13 5l0 119c0 5 2 11 4 17 2 6 6 11 9 14l57 57c3 3 8 7 14 9 6 2 12 4 17 4l46 0 0 91c0 5 1 9 5 13 4 4 8 5 13 5l329 0c5 0 9-1 13-5 3-4 5-8 5-13z"/>
<glyph glyph-name="anchor" unicode="&#109;" d="M274 439c0 5-2 9-5 13-4 3-8 5-13 5-5 0-9-2-13-5-3-4-5-8-5-13 0-5 2-9 5-13 4-4 8-5 13-5 5 0 9 1 13 5 3 4 5 8 5 13z m238-265l0-101c0-4-2-7-6-8-1-1-2-1-3-1-3 0-5 1-7 3l-26 26c-23-27-53-49-91-65-38-15-79-23-123-23-44 0-85 8-123 23-38 16-68 38-91 65l-26-26c-2-2-4-3-7-3-1 0-2 0-3 1-4 1-6 4-6 8l0 101c0 2 1 5 3 6 1 2 3 3 6 3l101 0c4 0 7-2 8-6 2-3 1-7-2-10l-28-28c12-18 31-32 54-44 23-12 49-20 77-24l0 185-54 0c-5 0-10 2-13 5-4 4-6 8-6 13l0 37c0 5 2 9 6 13 3 3 8 5 13 5l54 0 0 47c-11 6-19 15-26 26-7 11-10 24-10 37 0 20 7 37 21 52 15 14 32 21 52 21 20 0 37-7 52-21 14-15 21-32 21-52 0-13-3-26-10-37-7-11-15-20-26-26l0-47 54 0c5 0 10-2 13-5 4-4 6-8 6-13l0-37c0-5-2-9-6-13-3-3-8-5-13-5l-54 0 0-185c28 4 54 12 77 24 23 12 42 26 54 44l-28 28c-3 3-4 7-2 10 1 4 4 6 8 6l101 0c3 0 5-1 6-3 2-1 3-4 3-6z"/>
<glyph glyph-name="angle-double-down" unicode="&#112;" d="M399 265c0-2-1-5-3-6l-133-134c-2-1-5-2-7-2-2 0-5 1-7 2l-133 134c-2 1-3 4-3 6 0 3 1 5 3 7l15 14c1 2 4 3 6 3 3 0 5-1 7-3l112-112 112 112c2 2 4 3 7 3 2 0 5-1 6-3l15-14c2-2 3-4 3-7z m0 110c0-3-1-5-3-7l-133-133c-2-2-5-3-7-3-2 0-5 1-7 3l-133 133c-2 2-3 4-3 7 0 2 1 5 3 6l15 15c1 2 4 3 6 3 3 0 5-1 7-3l112-113 112 113c2 2 4 3 7 3 2 0 5-1 6-3l15-15c2-1 3-4 3-6z"/>
<glyph glyph-name="angle-double-left" unicode="&#113;" d="M289 119c0-3-1-5-3-7l-14-14c-2-2-4-3-7-3-2 0-5 1-6 3l-134 133c-1 2-2 4-2 7 0 2 1 4 2 6l134 133c1 2 4 3 6 3 3 0 5-1 7-3l14-14c2-2 3-4 3-6 0-3-1-5-3-7l-112-112 112-113c2-1 3-4 3-6z m110 0c0-3-1-5-3-7l-15-14c-1-2-4-3-6-3-3 0-5 1-7 3l-133 133c-2 2-3 4-3 7 0 2 1 4 3 6l133 133c2 2 4 3 7 3 2 0 5-1 6-3l15-14c2-2 3-4 3-6 0-3-1-5-3-7l-113-112 113-113c2-1 3-4 3-6z"/>
<glyph glyph-name="angle-double-right" unicode="&#114;" d="M280 238c0-3-1-5-3-7l-133-133c-2-2-4-3-7-3-2 0-5 1-6 3l-15 14c-2 2-3 4-3 7 0 2 1 5 3 6l113 113-113 112c-2 2-3 4-3 7 0 2 1 4 3 6l15 14c1 2 4 3 6 3 3 0 5-1 7-3l133-133c2-2 3-4 3-6z m109 0c0-3-1-5-2-7l-134-133c-1-2-4-3-6-3-3 0-5 1-7 3l-14 14c-2 2-3 4-3 7 0 2 1 5 3 6l112 113-112 112c-2 2-3 4-3 7 0 2 1 4 3 6l14 14c2 2 4 3 7 3 2 0 5-1 6-3l134-133c1-2 2-4 2-6z"/>
<glyph glyph-name="angle-double-up" unicode="&#115;" d="M399 137c0-2-1-5-3-6l-15-15c-1-2-4-3-6-3-3 0-5 1-7 3l-112 113-112-113c-2-2-4-3-7-3-2 0-5 1-6 3l-15 15c-2 1-3 4-3 6 0 3 1 5 3 7l133 133c2 2 5 3 7 3 2 0 5-1 7-3l133-133c2-2 3-4 3-7z m0 110c0-3-1-5-3-7l-15-14c-1-2-4-3-6-3-3 0-5 1-7 3l-112 112-112-112c-2-2-4-3-7-3-2 0-5 1-6 3l-15 14c-2 2-3 4-3 7 0 2 1 5 3 6l133 134c2 1 5 2 7 2 2 0 5-1 7-2l133-134c2-1 3-4 3-6z"/>
<glyph glyph-name="angle-down" unicode="&#116;" d="M399 302c0-3-1-5-3-7l-133-133c-2-2-5-3-7-3-2 0-5 1-7 3l-133 133c-2 2-3 4-3 7 0 2 1 4 3 6l15 15c1 1 4 2 6 2 3 0 5-1 7-2l112-113 112 113c2 1 4 2 7 2 2 0 5-1 6-2l15-15c2-2 3-4 3-6z"/>
<glyph glyph-name="angle-left" unicode="&#117;" d="M344 357c0-3-1-5-3-7l-112-112 112-113c2-1 3-4 3-6 0-3-1-5-3-7l-14-14c-2-2-5-3-7-3-2 0-5 1-7 3l-133 133c-2 2-3 4-3 7 0 2 1 4 3 6l133 133c2 2 5 3 7 3 2 0 5-1 7-3l14-14c2-2 3-4 3-6z"/>
<glyph glyph-name="angle-right" unicode="&#118;" d="M335 238c0-3-1-5-3-7l-133-133c-2-2-5-3-7-3-2 0-5 1-7 3l-14 14c-2 2-3 4-3 7 0 2 1 5 3 6l112 113-112 112c-2 2-3 4-3 7 0 2 1 4 3 6l14 14c2 2 5 3 7 3 2 0 5-1 7-3l133-133c2-2 3-4 3-6z"/>
<glyph glyph-name="angle-up" unicode="&#119;" d="M399 174c0-3-1-5-3-7l-15-14c-1-2-4-3-6-3-3 0-5 1-7 3l-112 112-112-112c-2-2-4-3-7-3-2 0-5 1-6 3l-15 14c-2 2-3 4-3 7 0 2 1 4 3 6l133 133c2 2 5 3 7 3 2 0 5-1 7-3l133-133c2-2 3-4 3-6z"/>
<glyph glyph-name="archive" unicode="&#121;" d="M311 274c0 5-2 10-6 13-3 4-7 6-12 6l-74 0c-5 0-9-2-12-6-4-3-6-8-6-13 0-5 2-9 6-13 3-3 7-5 12-5l74 0c5 0 9 2 12 5 4 4 6 8 6 13z m164 55l0-274c0-5-1-9-5-13-4-4-8-5-13-5l-402 0c-5 0-9 1-13 5-4 4-5 8-5 13l0 274c0 5 1 9 5 13 4 4 8 5 13 5l402 0c5 0 9-1 13-5 4-4 5-8 5-13z m19 128l0-73c0-5-2-9-6-13-3-3-8-5-13-5l-438 0c-5 0-10 2-13 5-4 4-6 8-6 13l0 73c0 5 2 9 6 13 3 4 8 5 13 5l438 0c5 0 10-1 13-5 4-4 6-8 6-13z"/>
<glyph glyph-name="area-chart" unicode="&#122;" d="M549 73l0-36-586 0 0 438 37 0 0-402z m-110 293l73-256-475 0 0 164 128 165 164-165z"/>
<glyph glyph-name="arrow-circle-down" unicode="&#65;" d="M403 256c0 5-1 9-5 13l-26 26c-3 3-7 5-13 5-5 0-9-2-12-5l-54-54 0 143c0 5-2 9-6 13-3 3-8 5-13 5l-36 0c-5 0-10-2-13-5-4-4-6-8-6-13l0-143-54 54c-3 3-7 5-12 5-5 0-10-2-13-5l-26-26c-4-4-5-8-5-13 0-5 1-10 5-13l103-104 26-26c4-3 8-5 13-5 5 0 9 2 13 5l26 26 103 104c4 3 5 8 5 13z m72 0c0-40-9-77-29-110-20-34-46-60-80-80-33-20-70-29-110-29-40 0-77 9-110 29-34 20-60 46-80 80-20 33-29 70-29 110 0 40 9 77 29 110 20 34 46 60 80 80 33 20 70 29 110 29 40 0 77-9 110-29 34-20 60-46 80-80 20-33 29-70 29-110z"/>
<glyph glyph-name="arrow-circle-left" unicode="&#66;" d="M402 238l0 36c0 5-2 10-5 13-4 4-8 6-13 6l-143 0 54 54c3 3 5 7 5 12 0 5-2 10-5 13l-26 26c-4 4-8 5-13 5-5 0-10-1-13-5l-104-103-26-26c-3-4-5-8-5-13 0-5 2-9 5-13l26-26 104-103c3-4 8-5 13-5 5 0 9 1 13 5l26 26c3 3 5 7 5 13 0 5-2 9-5 12l-54 54 143 0c5 0 9 2 13 6 3 3 5 8 5 13z m73 18c0-40-9-77-29-110-20-34-46-60-80-80-33-20-70-29-110-29-40 0-77 9-110 29-34 20-60 46-80 80-20 33-29 70-29 110 0 40 9 77 29 110 20 34 46 60 80 80 33 20 70 29 110 29 40 0 77-9 110-29 34-20 60-46 80-80 20-33 29-70 29-110z"/>
<glyph glyph-name="arrow-circle-o-down" unicode="&#67;" d="M357 247c0-2-1-5-3-7l-91-91c-3-2-5-3-7-3-2 0-4 1-7 3l-91 91c-3 3-4 7-2 10 2 4 4 6 9 6l54 0 0 101c0 2 1 4 3 6 2 2 4 3 7 3l54 0c3 0 5-1 7-3 2-2 3-4 3-6l0-101 54 0c3 0 5-1 7-3 2-1 3-3 3-6z m-101 164c-28 0-54-7-78-20-24-14-43-33-57-57-13-24-20-50-20-78 0-28 7-54 20-78 14-24 33-43 57-57 24-13 50-20 78-20 28 0 54 7 78 20 24 14 43 33 57 57 13 24 20 50 20 78 0 28-7 54-20 78-14 24-33 43-57 57-24 13-50 20-78 20z m219-155c0-40-9-77-29-110-20-34-46-60-80-80-33-20-70-29-110-29-40 0-77 9-110 29-34 20-60 46-80 80-20 33-29 70-29 110 0 40 9 77 29 110 20 34 46 60 80 80 33 20 70 29 110 29 40 0 77-9 110-29 34-20 60-46 80-80 20-33 29-70 29-110z"/>
<glyph glyph-name="arrow-circle-o-left" unicode="&#68;" d="M366 283l0-54c0-3-1-5-3-7-2-2-4-3-6-3l-101 0 0-54c0-3-1-5-3-7-1-2-3-3-6-3-2 0-5 1-7 3l-91 91c-2 2-3 4-3 7 0 3 1 5 3 7l91 91c2 2 4 3 7 3 2 0 4-1 6-3 2-2 3-4 3-7l0-54 101 0c2 0 4-1 6-3 2-2 3-4 3-7z m45-27c0 28-7 54-20 78-14 24-33 43-57 57-24 13-50 20-78 20-28 0-54-7-78-20-24-14-43-33-57-57-13-24-20-50-20-78 0-28 7-54 20-78 14-24 33-43 57-57 24-13 50-20 78-20 28 0 54 7 78 20 24 14 43 33 57 57 13 24 20 50 20 78z m64 0c0-40-9-77-29-110-20-34-46-60-80-80-33-20-70-29-110-29-40 0-77 9-110 29-34 20-60 46-80 80-20 33-29 70-29 110 0 40 9 77 29 110 20 34 46 60 80 80 33 20 70 29 110 29 40 0 77-9 110-29 34-20 60-46 80-80 20-33 29-70 29-110z"/>
<glyph glyph-name="arrow-circle-o-right" unicode="&#69;" d="M366 256c0-3-1-5-3-7l-91-91c-2-2-4-3-7-3-2 0-4 1-6 3-2 2-3 4-3 7l0 54-101 0c-2 0-4 1-6 3-2 2-3 4-3 7l0 54c0 3 1 5 3 7 2 2 4 3 6 3l101 0 0 54c0 3 1 5 3 7 1 2 3 3 6 3 2 0 5-1 7-3l91-91c2-2 3-4 3-7z m45 0c0 28-7 54-20 78-14 24-33 43-57 57-24 13-50 20-78 20-28 0-54-7-78-20-24-14-43-33-57-57-13-24-20-50-20-78 0-28 7-54 20-78 14-24 33-43 57-57 24-13 50-20 78-20 28 0 54 7 78 20 24 14 43 33 57 57 13 24 20 50 20 78z m64 0c0-40-9-77-29-110-20-34-46-60-80-80-33-20-70-29-110-29-40 0-77 9-110 29-34 20-60 46-80 80-20 33-29 70-29 110 0 40 9 77 29 110 20 34 46 60 80 80 33 20 70 29 110 29 40 0 77-9 110-29 34-20 60-46 80-80 20-33 29-70 29-110z"/>
<glyph glyph-name="arrow-circle-o-up" unicode="&#70;" d="M356 262c-2-4-4-6-9-6l-54 0 0-101c0-2-1-4-3-6-2-2-4-3-7-3l-54 0c-3 0-5 1-7 3-2 2-3 4-3 6l0 101-54 0c-3 0-5 1-7 3-2 1-3 3-3 6 0 2 1 5 3 7l91 91c3 2 5 3 7 3 2 0 4-1 7-3l91-91c3-3 4-7 2-10z m-100 149c-28 0-54-7-78-20-24-14-43-33-57-57-13-24-20-50-20-78 0-28 7-54 20-78 14-24 33-43 57-57 24-13 50-20 78-20 28 0 54 7 78 20 24 14 43 33 57 57 13 24 20 50 20 78 0 28-7 54-20 78-14 24-33 43-57 57-24 13-50 20-78 20z m219-155c0-40-9-77-29-110-20-34-46-60-80-80-33-20-70-29-110-29-40 0-77 9-110 29-34 20-60 46-80 80-20 33-29 70-29 110 0 40 9 77 29 110 20 34 46 60 80 80 33 20 70 29 110 29 40 0 77-9 110-29 34-20 60-46 80-80 20-33 29-70 29-110z"/>
<glyph glyph-name="arrow-circle-right" unicode="&#71;" d="M404 256c0 5-2 9-5 13l-26 26-104 103c-3 4-8 5-13 5-5 0-9-1-13-5l-26-26c-3-3-5-7-5-13 0-5 2-9 5-12l54-54-143 0c-5 0-9-2-13-6-3-3-5-8-5-13l0-36c0-5 2-10 5-13 4-4 8-6 13-6l143 0-54-54c-3-3-5-7-5-12 0-5 2-10 5-13l26-26c4-4 8-5 13-5 5 0 10 1 13 5l104 103 26 26c3 4 5 8 5 13z m71 0c0-40-9-77-29-110-20-34-46-60-80-80-33-20-70-29-110-29-40 0-77 9-110 29-34 20-60 46-80 80-20 33-29 70-29 110 0 40 9 77 29 110 20 34 46 60 80 80 33 20 70 29 110 29 40 0 77-9 110-29 34-20 60-46 80-80 20-33 29-70 29-110z"/>
<glyph glyph-name="arrow-circle-up" unicode="&#72;" d="M403 256c0 5-1 10-5 13l-103 104-26 26c-4 3-8 5-13 5-5 0-9-2-13-5l-26-26-103-104c-4-3-5-8-5-13 0-5 1-9 5-13l26-26c3-3 7-5 13-5 5 0 9 2 12 5l54 54 0-143c0-5 2-9 6-13 3-3 8-5 13-5l36 0c5 0 10 2 13 5 4 4 6 8 6 13l0 143 54-54c3-3 7-5 12-5 5 0 10 2 13 5l26 26c4 4 5 8 5 13z m72 0c0-40-9-77-29-110-20-34-46-60-80-80-33-20-70-29-110-29-40 0-77 9-110 29-34 20-60 46-80 80-20 33-29 70-29 110 0 40 9 77 29 110 20 34 46 60 80 80 33 20 70 29 110 29 40 0 77-9 110-29 34-20 60-46 80-80 20-33 29-70 29-110z"/>
<glyph glyph-name="arrow-down" unicode="&#73;" d="M479 274c0-10-4-18-11-25l-186-187c-7-7-16-10-26-10-10 0-19 3-26 10l-186 187c-7 6-11 15-11 25 0 10 4 19 11 26l21 22c8 7 17 10 26 10 11 0 19-3 26-10l84-84 0 201c0 10 4 18 11 26 7 7 16 10 26 10l36 0c10 0 19-3 26-10 7-8 11-16 11-26l0-201 84 84c7 7 15 10 26 10 9 0 18-3 26-10l21-22c7-7 11-16 11-26z"/>
<glyph glyph-name="arrow-left" unicode="&#74;" d="M475 256l0-37c0-10-3-18-9-25-6-8-14-11-24-11l-201 0 84-84c7-7 10-16 10-26 0-10-3-19-10-26l-22-21c-7-7-15-11-26-11-9 0-18 4-26 11l-186 186c-7 7-10 16-10 26 0 10 3 18 10 26l186 185c8 8 16 11 26 11 10 0 19-3 26-11l22-21c7-7 10-16 10-26 0-10-3-18-10-26l-84-83 201 0c10 0 18-4 24-11 6-7 9-16 9-26z"/>
<glyph glyph-name="arrow-right" unicode="&#75;" d="M457 238c0-11-3-19-10-26l-186-186c-8-7-17-11-26-11-10 0-19 4-26 11l-22 21c-7 7-10 16-10 26 0 10 3 19 10 26l84 84-201 0c-10 0-18 3-24 11-6 7-9 15-9 25l0 37c0 10 3 19 9 26 6 7 14 11 24 11l201 0-84 84c-7 6-10 15-10 25 0 11 3 19 10 26l22 21c7 8 16 11 26 11 10 0 18-3 26-11l186-186c7-6 10-15 10-25z"/>
<glyph glyph-name="arrow-up" unicode="&#76;" d="M479 235c0-10-4-19-11-26l-21-22c-8-7-16-10-26-10-11 0-19 3-26 10l-84 84 0-201c0-10-4-18-11-24-7-6-16-9-26-9l-36 0c-10 0-19 3-26 9-7 6-11 14-11 24l0 201-84-84c-7-7-15-10-26-10-10 0-18 3-25 10l-22 22c-7 7-11 16-11 26 0 10 4 18 11 26l186 186c7 7 16 10 26 10 10 0 19-3 26-10l186-186c7-8 11-17 11-26z"/>
<glyph glyph-name="arrows" unicode="&#77;" d="M512 256c0-5-2-9-5-13l-74-73c-3-4-7-5-12-5-5 0-10 1-13 5-4 4-6 8-6 13l0 36-109 0 0-109 36 0c5 0 9-2 13-6 4-3 5-8 5-13 0-5-1-9-5-12l-73-74c-4-3-8-5-13-5-5 0-9 2-13 5l-73 74c-4 3-5 7-5 12 0 5 1 10 5 13 4 4 8 6 13 6l36 0 0 109-109 0 0-36c0-5-2-9-6-13-3-4-8-5-13-5-5 0-9 1-12 5l-74 73c-3 4-5 8-5 13 0 5 2 9 5 13l74 73c3 4 7 5 12 5 5 0 10-1 13-5 4-4 6-8 6-13l0-36 109 0 0 109-36 0c-5 0-9 2-13 6-4 3-5 8-5 13 0 5 1 9 5 12l73 74c4 3 8 5 13 5 5 0 9-2 13-5l73-74c4-3 5-7 5-12 0-5-1-10-5-13-4-4-8-6-13-6l-36 0 0-109 109 0 0 36c0 5 2 9 6 13 3 4 8 5 13 5 5 0 9-1 12-5l74-73c3-4 5-8 5-13z"/>
<glyph glyph-name="arrows-alt" unicode="&#78;" d="M403 357l-101-101 101-101 41 41c6 6 12 7 20 4 8-4 11-9 11-17l0-128c0-5-1-9-5-13-4-4-8-5-13-5l-128 0c-8 0-13 3-17 11-3 7-2 14 4 20l41 41-101 101-101-101 41-41c6-6 7-13 4-20-4-8-9-11-17-11l-128 0c-5 0-9 1-13 5-4 4-5 8-5 13l0 128c0 8 3 13 11 17 7 3 14 2 20-4l41-41 101 101-101 101-41-41c-4-3-8-5-13-5-2 0-5 0-7 1-8 4-11 9-11 17l0 128c0 5 1 9 5 13 4 4 8 5 13 5l128 0c8 0 13-3 17-11 3-7 2-14-4-20l-41-41 101-101 101 101-41 41c-6 6-7 13-4 20 4 8 9 11 17 11l128 0c5 0 9-1 13-5 4-4 5-8 5-13l0-128c0-8-3-13-11-17-2-1-5-1-7-1-5 0-9 2-13 5z"/>
<glyph glyph-name="arrows-h" unicode="&#79;" d="M512 256c0-5-2-9-5-13l-74-73c-3-4-7-5-12-5-5 0-10 1-13 5-4 4-6 8-6 13l0 36-292 0 0-36c0-5-2-9-6-13-3-4-8-5-13-5-5 0-9 1-12 5l-74 73c-3 4-5 8-5 13 0 5 2 9 5 13l74 73c3 4 7 5 12 5 5 0 10-1 13-5 4-4 6-8 6-13l0-36 292 0 0 36c0 5 2 9 6 13 3 4 8 5 13 5 5 0 9-1 12-5l74-73c3-4 5-8 5-13z"/>
<glyph glyph-name="arrows-v" unicode="&#80;" d="M347 421c0-5-1-10-5-13-4-4-8-6-13-6l-36 0 0-292 36 0c5 0 9-2 13-6 4-3 5-8 5-13 0-5-1-9-5-12l-73-74c-4-3-8-5-13-5-5 0-9 2-13 5l-73 74c-4 3-5 7-5 12 0 5 1 10 5 13 4 4 8 6 13 6l36 0 0 292-36 0c-5 0-9 2-13 6-4 3-5 8-5 13 0 5 1 9 5 12l73 74c4 3 8 5 13 5 5 0 9-2 13-5l73-74c4-3 5-7 5-12z"/>
<glyph glyph-name="asterisk" unicode="&#81;" d="M442 212c8-5 14-12 17-22 2-10 1-19-4-28l-18-31c-5-9-12-15-22-17-10-3-19-2-28 3l-76 44 0-88c0-10-4-18-11-26-7-7-16-10-26-10l-36 0c-10 0-19 3-26 10-7 8-11 16-11 26l0 88-76-44c-9-5-18-6-28-3-10 2-17 8-22 17l-18 31c-5 9-6 18-4 28 3 10 9 17 17 22l76 44-76 44c-8 5-14 12-17 22-2 10-1 19 4 28l18 31c5 9 12 15 22 17 10 3 19 2 28-3l76-44 0 88c0 10 4 18 11 26 7 7 16 10 26 10l36 0c10 0 19-3 26-10 7-8 11-16 11-26l0-88 76 44c9 5 18 6 28 3 10-2 17-8 22-17l18-31c5-9 6-18 4-28-3-10-9-17-17-22l-76-44z"/>
<glyph glyph-name="at" unicode="&#82;" d="M314 291c0 20-5 36-15 48-10 11-24 17-42 17-12 0-24-3-36-8-11-6-22-14-31-25-9-10-17-23-23-39-6-16-8-33-8-51 0-21 5-38 15-50 10-11 24-17 43-17 18 0 35 6 50 19 15 13 27 28 35 47 8 19 12 39 12 59z m161-35c0-21-3-40-10-56-7-17-17-30-28-39-12-9-25-16-38-21-13-5-27-8-41-8-1 0-3 0-5-1-2-1-3-2-4-2-19 0-32 5-41 15-5 7-8 14-9 24-10-13-23-23-38-31-15-9-32-13-50-13-30 0-54 9-71 27-17 18-25 44-25 77 0 30 6 58 19 83 12 25 29 46 51 60 21 15 45 22 70 22 17 0 31-3 44-10 13-6 23-16 31-28l0 5 3 16c1 1 1 3 2 4 1 1 2 1 3 1l33 0c1 0 3-1 4-3 1-1 1-2 1-4l-34-176c-1-4-2-9-2-13 0-8 1-13 4-15 2-3 6-4 13-4 5 0 10 1 16 2 5 0 12 3 21 6 8 4 15 9 22 15 6 6 11 14 16 25 5 12 7 25 7 39 0 56-17 100-50 134-33 33-77 49-133 49-25 0-48-5-71-14-23-10-42-23-58-39-17-17-30-36-39-59-10-22-15-46-15-71 0-24 5-48 15-71 9-22 22-42 39-58 16-16 35-29 58-39 23-10 46-14 71-14 43 0 82 13 116 41 2 1 4 2 7 2 2 0 4-1 6-3l11-14c2-3 2-5 2-7 0-3-1-5-3-7-20-15-41-28-65-36-24-9-49-13-74-13-30 0-58 6-85 17-27 12-51 28-70 47-20 20-35 43-47 70-12 27-17 56-17 85 0 30 5 59 17 86 12 27 27 50 47 70 19 19 43 35 70 46 27 12 55 18 85 18 66 0 118-20 159-61 40-40 60-93 60-159z"/>
<glyph glyph-name="backward" unicode="&#83;" d="M481 472c3 3 7 5 9 3 2-1 4-4 4-9l0-420c0-5-2-8-4-9-2-2-6 0-9 3l-203 203c-2 2-3 4-4 6l0-203c0-5-1-8-3-9-3-2-6 0-10 3l-202 203c-4 4-6 8-6 13 0 5 2 9 6 13l202 203c4 3 7 5 10 3 2-1 3-4 3-9l0-203c1 3 2 4 4 6z"/>
<glyph glyph-name="balance-scale" unicode="&#84;" d="M421 384l-110-201 219 0z m-366 0l-110-201 220 0z m234 55c-2-8-7-15-13-21-6-6-12-10-20-13l0-368 174 0c2 0 5-1 6-3 2-2 3-4 3-7l0-18c0-3-1-5-3-6-1-2-4-3-6-3l-384 0c-3 0-5 1-7 3-2 1-2 3-2 6l0 18c0 3 0 5 2 7 2 2 4 3 7 3l173 0 0 368c-7 3-14 7-20 13-6 6-10 13-13 21l-140 0c-3 0-5 1-7 2-2 2-2 4-2 7l0 18c0 3 0 5 2 7 2 2 4 2 7 2l140 0c4 11 11 20 20 27 9 7 20 10 32 10 12 0 22-3 31-10 10-7 16-16 20-27l141 0c2 0 5 0 6-2 2-2 3-4 3-7l0-18c0-3-1-5-3-7-1-1-4-2-6-2z m-51-5c6 0 11 3 16 7 4 4 7 10 7 16 0 6-3 12-7 16-5 5-10 7-16 7-7 0-12-2-16-7-5-4-7-10-7-16 0-6 2-12 7-16 4-4 9-7 16-7z m311-251c0-14-5-27-14-38-9-11-20-19-33-26-14-6-28-11-42-14-14-3-27-4-39-4-13 0-26 1-40 4-14 3-28 8-42 14-13 7-24 15-33 26-9 11-13 24-13 38 0 2 3 10 10 23 6 13 15 30 26 50 11 20 21 38 30 56 10 17 20 35 30 52 9 18 15 28 16 29 3 6 8 9 16 9 7 0 12-3 16-9 0-1 6-11 16-29 9-17 19-35 29-52 9-18 19-36 30-56 11-20 20-37 27-50 6-13 10-21 10-23z m-366 0c0-14-5-27-13-38-9-11-20-19-34-26-14-6-27-11-41-14-14-3-28-4-40-4-13 0-26 1-40 4-14 3-28 8-41 14-14 7-25 15-34 26-9 11-13 24-13 38 0 2 3 10 10 23 7 13 15 30 26 50 11 20 21 38 31 56 9 17 19 35 29 52 10 18 15 28 16 29 3 6 9 9 16 9 7 0 12-3 16-9 1-1 6-11 16-29 10-17 19-35 29-52 10-18 20-36 31-56 10-20 19-37 26-50 7-13 10-21 10-23z"/>
<glyph glyph-name="ban" unicode="&#85;" d="M411 257c0 31-8 59-24 84l-216-215c26-17 55-25 85-25 21 0 41 4 60 12 20 8 36 19 50 33 14 14 25 31 33 50 8 19 12 40 12 61z m-285-86l216 216c-26 17-55 26-86 26-28 0-54-7-78-21-24-14-43-33-57-57-13-24-20-50-20-78 0-31 8-59 25-86z m349 86c0-30-5-59-17-86-12-27-27-51-47-70-19-20-43-35-70-47-27-12-55-17-85-17-30 0-58 5-85 17-27 12-51 27-70 47-20 19-35 43-47 70-12 27-17 56-17 86 0 30 5 58 17 85 12 28 27 51 47 71 19 19 43 35 70 46 27 12 55 18 85 18 30 0 58-6 85-18 27-11 51-27 70-46 20-20 35-43 47-71 12-27 17-55 17-85z"/>
<glyph glyph-name="bar-chart" unicode="&#86;" d="M146 256l0-146-73 0 0 146z m110 146l0-292-73 0 0 292z m293-329l0-36-586 0 0 438 37 0 0-402z m-183 256l0-219-73 0 0 219z m109 110l0-329-73 0 0 329z"/>
<glyph glyph-name="barcode" unicode="&#87;" d="M18 73l-18 0 0 402 18 0z m18 0l-9 0 0 402 9 0z m27 0l-9 0 0 402 9 0z m45 0l-9 0 0 402 9 0z m45 0l-18 0 0 402 18 0z m36 0l-9 0 0 402 9 0z m18 0l-9 0 0 402 9 0z m18 0l-9 0 0 402 9 0z m44 0l-18 0 0 402 18 0z m45 0l-18 0 0 402 18 0z m36 0l-18 0 0 402 18 0z m36 0l-18 0 0 402 18 0z m27 0l-18 0 0 402 18 0z m54 0l-27 0 0 402 27 0z m18 0l-9 0 0 402 9 0z m27 0l-18 0 0 402 18 0z"/>
<glyph glyph-name="bars" unicode="&#88;" d="M475 128l0-37c0-5-1-9-5-12-4-4-8-6-13-6l-402 0c-5 0-9 2-13 6-4 3-5 7-5 12l0 37c0 5 1 9 5 13 4 3 8 5 13 5l402 0c5 0 9-2 13-5 4-4 5-8 5-13z m0 146l0-36c0-5-1-10-5-13-4-4-8-6-13-6l-402 0c-5 0-9 2-13 6-4 3-5 8-5 13l0 36c0 5 1 10 5 13 4 4 8 6 13 6l402 0c5 0 9-2 13-6 4-3 5-8 5-13z m0 147l0-37c0-5-1-9-5-13-4-3-8-5-13-5l-402 0c-5 0-9 2-13 5-4 4-5 8-5 13l0 37c0 5 1 9 5 12 4 4 8 6 13 6l402 0c5 0 9-2 13-6 4-3 5-7 5-12z"/>
<glyph glyph-name="battery-empty" unicode="&#89;" d="M549 347c10 0 18-3 25-10 8-7 11-16 11-26l0-110c0-10-3-19-11-26-7-7-15-10-25-10l0-46c0-13-5-23-14-32-9-9-20-14-32-14l-530 0c-13 0-24 5-33 14-9 9-13 19-13 32l0 274c0 13 4 23 13 32 9 9 20 14 33 14l530 0c12 0 23-5 32-14 9-9 14-19 14-32z m0-146l0 110-37 0 0 82c0 3-1 5-3 7-1 1-3 2-6 2l-530 0c-3 0-5-1-7-2-2-2-3-4-3-7l0-274c0-3 1-5 3-7 2-1 4-2 7-2l530 0c3 0 5 1 6 2 2 2 3 4 3 7l0 82z"/>
<glyph glyph-name="battery-full" unicode="&#90;" d="M475 366l0-220-475 0 0 220z m37-165l37 0 0 110-37 0 0 82c0 3-1 5-3 7-1 1-3 2-6 2l-530 0c-3 0-5-1-7-2-2-2-3-4-3-7l0-274c0-3 1-5 3-7 2-1 4-2 7-2l530 0c3 0 5 1 6 2 2 2 3 4 3 7z m73 110l0-110c0-10-3-19-11-26-7-7-15-10-25-10l0-46c0-13-5-23-14-32-9-9-20-14-32-14l-530 0c-13 0-24 5-33 14-9 9-13 19-13 32l0 274c0 13 4 23 13 32 9 9 20 14 33 14l530 0c12 0 23-5 32-14 9-9 14-19 14-32l0-46c10 0 18-3 25-10 8-7 11-16 11-26z"/>
<glyph glyph-name="battery-half" unicode="&#48;" d="M0 146l0 220 256 0 0-220z m549 201c10 0 18-3 25-10 8-7 11-16 11-26l0-110c0-10-3-19-11-26-7-7-15-10-25-10l0-46c0-13-5-23-14-32-9-9-20-14-32-14l-530 0c-13 0-24 5-33 14-9 9-13 19-13 32l0 274c0 13 4 23 13 32 9 9 20 14 33 14l530 0c12 0 23-5 32-14 9-9 14-19 14-32z m0-146l0 110-37 0 0 82c0 3-1 5-3 7-1 1-3 2-6 2l-530 0c-3 0-5-1-7-2-2-2-3-4-3-7l0-274c0-3 1-5 3-7 2-1 4-2 7-2l530 0c3 0 5 1 6 2 2 2 3 4 3 7l0 82z"/>
<glyph glyph-name="battery-quarter" unicode="&#49;" d="M0 146l0 220 146 0 0-220z m549 201c10 0 18-3 25-10 8-7 11-16 11-26l0-110c0-10-3-19-11-26-7-7-15-10-25-10l0-46c0-13-5-23-14-32-9-9-20-14-32-14l-530 0c-13 0-24 5-33 14-9 9-13 19-13 32l0 274c0 13 4 23 13 32 9 9 20 14 33 14l530 0c12 0 23-5 32-14 9-9 14-19 14-32z m0-146l0 110-37 0 0 82c0 3-1 5-3 7-1 1-3 2-6 2l-530 0c-3 0-5-1-7-2-2-2-3-4-3-7l0-274c0-3 1-5 3-7 2-1 4-2 7-2l530 0c3 0 5 1 6 2 2 2 3 4 3 7l0 82z"/>
<glyph glyph-name="battery-three-quarters" unicode="&#50;" d="M0 146l0 220 366 0 0-220z m549 201c10 0 18-3 25-10 8-7 11-16 11-26l0-110c0-10-3-19-11-26-7-7-15-10-25-10l0-46c0-13-5-23-14-32-9-9-20-14-32-14l-530 0c-13 0-24 5-33 14-9 9-13 19-13 32l0 274c0 13 4 23 13 32 9 9 20 14 33 14l530 0c12 0 23-5 32-14 9-9 14-19 14-32z m0-146l0 110-37 0 0 82c0 3-1 5-3 7-1 1-3 2-6 2l-530 0c-3 0-5-1-7-2-2-2-3-4-3-7l0-274c0-3 1-5 3-7 2-1 4-2 7-2l530 0c3 0 5 1 6 2 2 2 3 4 3 7l0 82z"/>
<glyph glyph-name="bed" unicode="&#51;" d="M37 219l493 0c5 0 10-1 13-5 4-4 6-8 6-13l0-128-74 0 0 73-438 0 0-73-74 0 0 348c0 5 2 9 6 12 3 4 8 6 13 6l36 0c5 0 10-2 13-6 4-3 6-7 6-12z m164 92c0 20-7 37-21 52-15 14-32 21-52 21-20 0-37-7-52-21-14-15-21-32-21-52 0-20 7-38 21-52 15-14 32-21 52-21 20 0 37 7 52 21 14 14 21 32 21 52z m348-73l0 18c0 30-11 56-33 78-21 21-47 32-77 32l-201 0c-5 0-10-2-13-6-4-3-6-8-6-13l0-109z"/>
<glyph glyph-name="beer" unicode="&#52;" d="M201 256l0 110-73 0 0-73c0-11 4-19 11-26 7-7 15-11 26-11z m293-128l0-55-329 0 0 55 36 55-36 0c-31 0-57 11-78 32-21 21-32 47-32 78l0 91-18 18 9 37 137 0 9 36 274 0 9-54-18-10 0-228z"/>
<glyph glyph-name="bell" unicode="&#55;" d="M261 27c0 3-2 5-5 5-11 0-21 4-29 12-8 8-12 18-12 29 0 3-2 5-5 5-3 0-4-2-4-5 0-14 5-26 14-35 10-10 22-15 36-15 3 0 5 1 5 4z m233 83c0-10-4-19-11-26-7-7-16-11-26-11l-128 0c0-20-7-37-21-52-15-14-32-21-52-21-20 0-37 7-52 21-14 15-21 32-21 52l-128 0c-10 0-19 4-26 11-7 7-11 16-11 26 10 8 18 16 26 25 8 9 16 20 25 34 8 14 15 29 21 45 6 16 10 36 14 59 4 23 6 48 6 74 0 29 11 56 33 81 22 25 52 40 88 45-2 4-2 8-2 12 0 7 2 14 8 19 5 5 11 8 19 8 8 0 14-3 19-8 6-5 8-12 8-19 0-4 0-8-2-12 36-5 66-20 88-45 22-25 33-52 33-81 0-26 2-51 6-74 4-23 8-43 14-59 6-16 13-31 21-45 9-14 17-25 25-34 8-9 16-17 26-25z"/>
<glyph glyph-name="bell-o" unicode="&#56;" d="M261 27c0 3-2 5-5 5-11 0-21 4-29 12-8 8-12 18-12 29 0 3-2 5-5 5-3 0-4-2-4-5 0-14 5-26 14-35 10-10 22-15 36-15 3 0 5 1 5 4z m-191 83l372 0c-51 57-76 136-76 237 0 10-3 20-7 30-5 11-11 21-20 30-8 9-20 17-35 23-14 6-30 9-48 9-18 0-34-3-48-9-15-6-27-14-35-23-9-9-15-19-20-30-4-10-7-20-7-30 0-101-25-180-76-237z m424 0c0-10-4-19-11-26-7-7-16-11-26-11l-128 0c0-20-7-37-21-52-15-14-32-21-52-21-20 0-37 7-52 21-14 15-21 32-21 52l-128 0c-10 0-19 4-26 11-7 7-11 16-11 26 10 8 18 16 26 25 8 9 16 20 25 34 8 14 15 29 21 45 6 16 10 36 14 59 4 23 6 48 6 74 0 29 11 56 33 81 22 25 52 40 88 45-2 4-2 8-2 12 0 7 2 14 8 19 5 5 11 8 19 8 8 0 14-3 19-8 6-5 8-12 8-19 0-4 0-8-2-12 36-5 66-20 88-45 22-25 33-52 33-81 0-26 2-51 6-74 4-23 8-43 14-59 6-16 13-31 21-45 9-14 17-25 25-34 8-9 16-17 26-25z"/>
<glyph glyph-name="bell-slash" unicode="&#57;" d="M409 269c11-68 40-121 85-159 0-10-4-19-11-26-7-7-16-11-26-11l-128 0c0-20-7-37-21-52-15-14-32-21-52-21-20 0-37 7-52 21-14 14-21 32-21 52z m-153-246c3 0 5 1 5 4 0 3-2 5-5 5-11 0-21 4-29 12-8 8-12 18-12 29 0 3-2 5-5 5-3 0-4-2-4-5 0-14 5-26 14-35 10-10 22-15 36-15z m286 457c2-2 3-4 2-7 0-2-1-4-3-6l-534-464c-2-1-5-2-7-2-3 1-5 2-6 4l-24 27c-2 2-3 4-2 7 0 2 1 4 3 6l53 46c-4 6-6 12-6 19 10 8 18 16 26 25 8 9 16 20 25 34 8 14 15 29 21 45 6 16 10 36 14 59 4 23 6 48 6 74 0 29 11 56 33 81 22 25 52 40 88 45-2 4-2 8-2 12 0 7 2 14 8 19 5 5 11 8 19 8 8 0 14-3 19-8 6-5 8-12 8-19 0-4 0-8-2-12 24-3 45-11 63-23 18-12 32-27 42-45l119 104c2 1 5 2 7 2 3-1 5-2 6-4z"/>
<glyph glyph-name="bell-slash-o" unicode="&#33;" d="M261 27c0 3-2 5-5 5-11 0-21 4-29 12-8 8-12 18-12 29 0 3-2 5-5 5-3 0-4-2-4-5 0-14 5-26 14-35 10-10 22-15 36-15 3 0 5 1 5 4z m-154 136l251 217c-8 17-21 31-38 42-17 11-39 17-64 17-18 0-34-3-48-9-15-6-27-14-35-23-9-9-15-19-20-30-4-10-7-20-7-30 0-73-13-134-39-184z m387-53c0-10-4-19-11-26-7-7-16-11-26-11l-128 0c0-20-7-37-21-52-15-14-32-21-52-21-20 0-37 7-52 21-14 14-21 32-21 52l42 37 217 0c-32 35-54 79-65 131l32 28c11-68 40-121 85-159z m24 397l24-27c2-2 3-4 2-7 0-2-1-4-3-6l-534-464c-2-1-5-2-7-2-3 1-5 2-6 4l-24 27c-2 2-3 4-2 7 0 2 1 4 3 6l53 46c-4 6-6 12-6 19 10 8 18 16 26 25 8 9 16 20 25 34 8 14 15 29 21 45 6 16 10 36 14 59 4 23 6 48 6 74 0 29 11 56 33 81 22 25 52 40 88 45-2 4-2 8-2 12 0 7 2 14 8 19 5 5 11 8 19 8 8 0 14-3 19-8 6-5 8-12 8-19 0-4 0-8-2-12 24-3 45-11 63-23 18-12 32-27 42-45l119 104c2 1 5 2 7 2 3-1 5-2 6-4z"/>
<glyph glyph-name="bicycle" unicode="&#34;" d="M145 183l-90 0c-8 0-13 3-17 10-3 7-2 13 2 19l54 72c-12 6-25 9-39 9-25 0-47-9-65-27-18-18-27-40-27-65 0-25 9-47 27-64 18-18 40-27 65-27 22 0 41 7 58 20 17 14 27 32 32 53z m-54 36l54 0c-4 17-11 31-22 43z m138 0l82 110-137 0-29-38c20-19 32-43 36-72z m320-18c0 25-9 47-27 65-18 18-40 27-65 27-11 0-23-3-34-7l49-75c3-4 4-9 3-14-1-5-3-8-8-11-2-2-6-3-10-3-7 0-12 3-15 8l-50 74c-17-18-26-39-26-64 0-25 9-47 27-64 17-18 39-27 64-27 25 0 47 9 65 27 18 17 27 39 27 64z m36 0c0-35-12-65-37-90-25-25-56-38-91-38-35 0-65 13-90 38-25 25-38 55-38 90 0 19 4 36 11 53 8 16 18 30 32 42l-19 28-101-134c-3-5-8-7-14-7l-57 0c-4-31-18-57-42-78-24-21-52-32-84-32-35 0-66 13-91 38-25 25-37 55-37 90 0 35 12 66 37 91 25 25 56 37 91 37 22 0 42-5 61-16l39 53-64 0c-5 0-9 2-12 5-4 4-6 8-6 13 0 5 2 9 6 13 3 3 7 5 12 5l110 0 0-36 124 0-24 36-63 0c-5 0-10 2-13 6-4 3-6 8-6 13 0 5 2 9 6 12 3 4 8 6 13 6l73 0c6 0 11-3 15-8l76-114c18 8 36 12 55 12 35 0 66-12 91-37 25-25 37-56 37-91z"/>
<glyph glyph-name="binoculars" unicode="&#35;" d="M201 421l0-220c0-5-2-9-5-13-4-3-8-5-13-5l0-165c0-5-2-9-6-13-3-3-7-5-12-5l-147 0c-5 0-9 2-13 5-3 4-5 8-5 13l0 147 71 249c1 4 4 7 9 7z m92 0l0-202-74 0 0 202z m219-256l0-147c0-5-2-9-5-13-4-3-8-5-13-5l-147 0c-5 0-9 2-12 5-4 4-6 8-6 13l0 165c-5 0-9 2-13 5-3 4-5 8-5 13l0 220 121 0c5 0 8-3 9-7z m-302 338l0-64-100 0 0 64c0 3 1 5 2 6 2 2 4 3 7 3l82 0c3 0 5-1 7-3 1-1 2-3 2-6z m192 0l0-64-100 0 0 64c0 3 1 5 2 6 2 2 4 3 7 3l82 0c3 0 5-1 7-3 1-1 2-3 2-6z"/>
<glyph glyph-name="birthday-cake" unicode="&#36;" d="M512 110l0-110-512 0 0 110c9 0 17 1 24 4 8 2 14 5 17 8 4 2 8 6 14 10 5 5 10 9 14 11 4 2 10 3 16 3 7 0 12-1 16-3 4-2 9-6 15-11 6-4 10-8 14-11 3-2 9-5 16-7 8-3 16-4 25-4 8 0 17 1 24 4 8 3 13 5 17 8 3 2 8 6 13 10 4 4 8 6 10 8 2 2 5 3 9 4 3 2 7 2 12 2 7 0 12-1 16-3 4-2 9-6 15-11 5-4 10-8 13-10 4-3 10-6 17-8 8-3 16-4 24-4 9 0 17 1 25 4 7 2 13 5 17 8 3 2 8 6 13 10 6 5 11 9 15 11 4 2 9 3 16 3 6 0 12-1 16-3 4-2 9-6 14-11 6-4 10-8 14-10 3-3 9-6 17-8 7-3 15-4 24-4z m0 91l0-55c-7 0-12 1-16 3-4 3-9 6-15 11-5 5-10 9-13 11-4 3-9 5-17 8-7 3-16 4-24 4-9 0-17-1-25-4-7-3-13-5-16-8-4-2-8-6-14-11-4-3-7-6-9-7-2-2-5-3-9-5-4-1-8-2-13-2-6 0-12 1-16 3-4 3-9 6-14 11-6 5-10 9-14 11-3 3-9 5-16 8-8 3-16 4-25 4-9 0-17-2-24-4-8-3-13-6-17-8-3-2-8-6-14-11-4-3-7-6-9-7-2-2-5-3-9-5-3-1-8-2-12-2-7 0-12 1-16 3-4 3-9 6-15 11-5 5-10 8-13 11-4 3-10 5-17 8-8 3-16 4-25 4-8 0-17-1-24-4-8-3-13-5-17-8-3-2-8-6-13-11-6-5-11-8-15-11-4-2-9-3-16-3l0 55c0 15 5 28 16 39 11 11 24 16 39 16l18 0 0 128 73 0 0-128 73 0 0 128 74 0 0-128 73 0 0 128 73 0 0-128 18 0c15 0 28-5 39-16 11-11 16-24 16-39z m-366 247c0-15-3-26-10-34-7-8-16-12-26-12-10 0-19 4-26 11-7 7-11 16-11 26 0 5 1 10 3 14 2 5 4 8 7 10 2 2 5 5 8 8 4 3 7 6 9 9 3 3 5 7 7 13 2 5 3 12 3 19 7 0 15-7 23-21 9-14 13-29 13-43z m147 0c0-15-4-26-11-34-7-8-15-12-26-12-10 0-19 4-26 11-7 7-11 16-11 26 0 5 1 10 3 14 2 5 4 8 7 10 3 2 5 5 9 8 3 3 6 6 9 9 2 3 4 7 6 13 2 5 3 12 3 19 7 0 15-7 24-21 8-14 13-29 13-43z m146 0c0-15-4-26-10-34-7-8-16-12-27-12-10 0-18 4-26 11-7 7-10 16-10 26 0 5 1 10 2 14 2 5 4 8 7 10 3 2 6 5 9 8 3 3 6 6 9 9 3 3 5 7 7 13 1 5 2 12 2 19 8 0 15-7 24-21 9-14 13-29 13-43z"/>
<glyph glyph-name="black-tie" unicode="&#39;" d="M37 475l438 0 0-438-438 0z m310-318l-64 180 64 85-182 0 64-85-64-180 91-87z"/>
<glyph glyph-name="bold" unicode="&#40;" d="M213 77c15-6 28-9 40-9 72 0 108 32 108 96 0 22-4 39-12 51-5 9-11 16-17 22-7 5-13 10-20 13-6 3-14 5-23 7-9 2-17 3-24 3-7 0-16 1-27 1-14 0-23-1-29-3 0-10 0-26 0-46 0-20 0-35 0-45 0-1 0-8 0-19 0-11 0-21 0-28 0-7 0-15 1-24 1-8 2-15 3-19z m-4 214c8-2 19-2 32-2 15 0 29 1 40 3 12 3 23 7 32 13 9 6 16 15 21 26 5 11 7 24 7 40 0 13-2 25-8 35-5 10-13 18-22 24-10 5-20 9-31 12-11 3-23 4-36 4-9 0-22-1-37-4 0-9 1-24 1-43 1-19 1-34 1-43 0-5 0-13 0-23 0-10 0-18 0-23 0-8 0-15 0-19z m-154-254l0 26c3 1 11 3 25 5 13 2 23 5 30 8 1 2 3 5 4 7 1 3 1 6 2 10 1 4 1 7 2 9 0 3 0 7 0 11 1 4 1 8 2 10l0 18c0 187-2 285-6 293-1 2-3 3-7 4-3 2-7 3-12 4-5 0-10 1-15 2-4 0-9 0-13 1-5 0-8 1-9 1l-1 23c18 1 51 2 97 4 46 2 81 2 106 2 5 0 11 0 20-1 9-1 15-1 19-1 14 0 27-2 39-4 13-3 25-7 37-12 12-6 22-12 31-20 9-8 16-18 21-30 5-12 8-25 8-40 0-9-2-19-5-27-3-8-7-15-11-20-4-6-10-11-18-17-8-5-15-10-21-13-6-3-14-7-24-11 29-7 54-20 73-38 20-19 29-43 29-71 0-19-3-36-10-52-6-15-15-27-26-37-11-10-25-18-40-24-15-7-30-11-46-14-16-3-33-4-51-4-8 0-21 0-37 1-17 0-30 1-38 1-20 0-50-1-88-4-38-2-60-3-66-3z"/>
<glyph glyph-name="bolt" unicode="&#41;" d="M381 350c3-4 4-8 2-12l-154-331c-3-5-7-7-12-7-1 0-3 0-4 1-4 1-6 2-8 5-1 3-2 6-1 9l56 230-116-28c0-1-2-1-3-1-4 0-7 1-9 3-3 3-5 7-4 12l58 235c0 3 2 5 4 7 3 2 5 2 8 2l94 0c4 0 7-1 9-3 3-3 4-5 4-9 0-1-1-3-2-5l-48-132 113 28c1 0 2 1 3 1 4 0 7-2 10-5z"/>
<glyph glyph-name="bomb" unicode="&#42;" d="M163 344c-2 4-5 8-10 10-4 2-9 2-14 0-20-9-38-21-54-37-16-15-28-34-36-54-2-5-2-10 0-14 1-5 5-8 10-10 2-1 4-1 6-1 8 0 14 4 18 11 6 16 15 30 28 43 12 12 26 21 42 28 5 2 8 5 10 10 2 4 2 9 0 14z m269 101l13-13-69-69 19-20c4-3 6-8 6-13 0-5-2-9-6-13l-18-18c17-31 25-63 25-98 0-27-5-53-16-78-10-25-24-46-42-64-18-18-40-33-65-43-25-11-51-16-78-16-27 0-53 5-78 16-25 10-46 25-64 43-18 18-33 39-43 64-11 25-16 51-16 78 0 27 5 53 16 78 10 25 25 47 43 65 18 18 39 32 64 42 25 11 51 16 78 16 35 0 67-8 98-25l18 18c4 4 8 6 13 6 5 0 10-2 13-6l20-19z m3 16c-2-1-4-2-7-2-2 0-4 1-6 2l-26 26c-2 2-3 4-3 7 0 2 1 4 3 6 2 2 4 3 6 3 3 0 5-1 7-3l26-26c1-1 2-4 2-6 0-3-1-5-2-7z m65-65c-2-2-4-3-6-3-3 0-5 1-7 3l-26 26c-1 1-2 4-2 6 0 3 1 5 2 7 2 1 4 2 7 2 2 0 5-1 6-2l26-26c2-2 3-4 3-7 0-2-1-4-3-6z m12 52c0-3-1-5-3-7-1-1-3-2-6-2l-28 0c-2 0-4 1-6 2-2 2-3 4-3 7 0 3 1 5 3 7 2 1 4 2 6 2l28 0c3 0 5-1 6-2 2-2 3-4 3-7z m-55 55l0-28c0-2-1-4-2-6-2-2-4-3-7-3-3 0-5 1-7 3-1 2-2 4-2 6l0 28c0 3 1 5 2 6 2 2 4 3 7 3 3 0 5-1 7-3 1-1 2-3 2-6z m43-16l-26-26c-2-1-4-2-6-2-2 0-5 1-7 2-1 2-2 4-2 7 0 2 1 5 2 6l26 26c2 2 4 3 7 3 2 0 4-1 6-3 2-2 3-4 3-6 0-3-1-5-3-7z"/>
<glyph glyph-name="book" unicode="&#43;" d="M487 375c7-10 9-23 5-36l-79-259c-3-12-11-23-22-31-11-8-22-12-35-12l-263 0c-15 0-29 5-43 15-13 10-23 23-28 37-5 13-5 25-1 37 0 0 0 3 1 7 1 5 1 8 1 11 0 2 0 4-1 6 0 3-1 5-1 6 1 2 2 4 3 6 1 2 2 4 4 6 2 3 4 5 5 7 5 7 9 16 13 26 4 10 7 19 9 26 0 2 0 5-1 9 0 4 0 6 0 8 1 2 2 5 5 8 3 3 4 5 5 7 4 6 8 15 12 26 4 11 6 19 7 26 0 1 0 4-1 9 0 4 0 7 0 8 1 2 3 5 7 8 3 4 5 6 6 7 3 5 8 13 12 24 4 11 7 20 8 28 0 1 0 4-1 7-1 3-1 6-1 7 1 2 2 4 3 6 1 1 3 4 5 6 2 3 4 5 5 6 2 2 3 5 5 9 1 3 3 7 4 10 1 3 3 6 5 10 1 4 3 7 5 9 2 3 5 5 8 7 3 2 6 3 10 3 4 0 8 0 14-1l-1-1c8 2 12 2 15 2l217 0c14 0 25-5 33-16 7-10 9-23 5-37l-78-259c-7-22-14-37-21-43-6-7-19-10-36-10l-249 0c-5 0-8-2-11-5-2-3-2-7 0-12 5-13 18-20 41-20l264 0c6 0 11 2 16 5 5 3 8 6 10 11l86 282c1 5 2 10 1 17 7-3 13-7 17-13z m-304 0c-1-3-1-5 0-7 1-1 3-2 6-2l174 0c2 0 4 1 7 2 2 2 4 4 5 7l6 18c0 3 0 5-1 7-1 1-3 2-6 2l-173 0c-3 0-5-1-8-2-2-2-4-4-4-7z m-24-73c-1-3-1-5 0-7 2-2 3-2 6-2l174 0c2 0 5 0 7 2 3 2 4 4 5 7l6 18c1 2 0 5-1 6-1 2-3 3-5 3l-174 0c-3 0-5-1-7-3-3-1-4-4-5-6z"/>
<glyph glyph-name="bookmark" unicode="&#44;" d="M406 475c4 0 8 0 12-2 7-3 12-7 15-12 4-5 6-11 6-18l0-368c0-6-2-12-6-18-3-5-8-9-15-11-3-2-8-3-12-3-9 0-17 3-24 10l-126 121-126-121c-7-7-15-10-24-10-4 0-8 1-12 3-7 2-12 6-15 11-4 6-6 12-6 18l0 368c0 7 2 13 6 18 3 5 8 9 15 12 4 2 8 2 12 2z"/>
<glyph glyph-name="bookmark-o" unicode="&#45;" d="M402 439l-292 0 0-355 121 116 25 24 25-24 121-116z m4 36c4 0 8 0 12-2 7-3 12-7 15-12 4-5 6-11 6-18l0-368c0-6-2-12-6-18-3-5-8-9-15-11-3-2-8-3-12-3-9 0-17 3-24 10l-126 121-126-121c-7-7-15-10-24-10-4 0-8 1-12 3-7 2-12 6-15 11-4 6-6 12-6 18l0 368c0 7 2 13 6 18 3 5 8 9 15 12 4 2 8 2 12 2z"/>
<glyph glyph-name="briefcase" unicode="&#46;" d="M183 439l146 0 0 36-146 0z m329-183l0-137c0-13-4-23-13-32-9-9-20-14-33-14l-420 0c-13 0-24 5-33 14-9 9-13 19-13 32l0 137 192 0 0-46c0-5 2-9 5-13 4-3 8-5 13-5l92 0c5 0 9 2 13 5 3 4 5 8 5 13l0 46z m-219 0l0-37-74 0 0 37z m219 137l0-110-512 0 0 110c0 13 4 23 13 32 9 9 20 14 33 14l100 0 0 46c0 7 3 14 8 19 6 5 12 8 20 8l164 0c8 0 14-3 20-8 5-5 8-12 8-19l0-46 100 0c13 0 24-5 33-14 9-9 13-19 13-32z"/>
<glyph glyph-name="bug" unicode="&#58;" d="M485 238c0-5-2-10-6-13-3-4-8-6-13-6l-64 0c0-32-6-60-19-82l60-60c3-4 5-8 5-13 0-5-2-9-5-13-4-3-8-5-13-5-5 0-10 2-13 5l-57 56c-1-1-2-2-4-3-2-2-6-5-12-8-6-4-12-8-19-11-6-3-14-6-23-8-9-3-19-4-28-4l0 256-36 0 0-256c-10 0-20 1-29 4-10 3-18 6-25 9-7 4-13 8-19 12-6 3-10 6-12 9l-5 4-52-59c-4-4-8-6-14-6-4 0-8 1-12 4-4 4-6 8-6 13 0 5 1 9 5 13l57 65c-11 22-16 48-16 78l-64 0c-5 0-10 2-13 6-4 3-6 8-6 13 0 5 2 9 6 13 3 3 8 5 13 5l64 0 0 84-50 49c-3 4-5 8-5 13 0 5 2 10 5 13 4 4 8 6 13 6 5 0 9-2 13-6l49-49 242 0 49 49c4 4 8 6 13 6 5 0 9-2 13-6 3-3 5-8 5-13 0-5-2-9-5-13l-50-49 0-84 64 0c5 0 10-2 13-5 4-4 6-8 6-13z m-138 164l-182 0c0 26 8 47 26 65 18 18 40 27 65 27 25 0 47-9 65-27 18-18 26-39 26-65z"/>
<glyph glyph-name="building" unicode="&#59;" d="M421 512c5 0 9-2 12-5 4-4 6-8 6-13l0-476c0-5-2-9-6-13-3-3-7-5-12-5l-366 0c-5 0-9 2-13 5-4 4-5 8-5 13l0 476c0 5 1 9 5 13 4 3 8 5 13 5z m-238-82l0-19c0-2 1-4 2-6 2-2 4-3 7-3l18 0c3 0 5 1 7 3 2 2 2 4 2 6l0 19c0 2 0 5-2 6-2 2-4 3-7 3l-18 0c-3 0-5-1-7-3-1-1-2-4-2-6z m0-73l0-19c0-2 1-5 2-6 2-2 4-3 7-3l18 0c3 0 5 1 7 3 2 1 2 4 2 6l0 19c0 2 0 4-2 6-2 2-4 3-7 3l-18 0c-3 0-5-1-7-3-1-2-2-4-2-6z m0-74l0-18c0-3 1-5 2-6 2-2 4-3 7-3l18 0c3 0 5 1 7 3 2 1 2 3 2 6l0 18c0 3 0 5-2 7-2 2-4 3-7 3l-18 0c-3 0-5-1-7-3-1-2-2-4-2-7z m0-73l0-18c0-3 1-5 2-7 2-1 4-2 7-2l18 0c3 0 5 1 7 2 2 2 2 4 2 7l0 18c0 3 0 5-2 7-2 2-4 2-7 2l-18 0c-3 0-5 0-7-2-1-2-2-4-2-7z m-37-91l0 18c0 3-1 5-2 7-2 1-4 2-7 2l-18 0c-3 0-5-1-7-2-1-2-2-4-2-7l0-18c0-3 1-5 2-7 2-1 4-2 7-2l18 0c3 0 5 1 7 2 1 2 2 4 2 7z m0 73l0 18c0 3-1 5-2 7-2 2-4 2-7 2l-18 0c-3 0-5 0-7-2-1-2-2-4-2-7l0-18c0-3 1-5 2-7 2-1 4-2 7-2l18 0c3 0 5 1 7 2 1 2 2 4 2 7z m0 73l0 18c0 3-1 5-2 7-2 2-4 3-7 3l-18 0c-3 0-5-1-7-3-1-2-2-4-2-7l0-18c0-3 1-5 2-6 2-2 4-3 7-3l18 0c3 0 5 1 7 3 1 1 2 3 2 6z m0 73l0 19c0 2-1 4-2 6-2 2-4 3-7 3l-18 0c-3 0-5-1-7-3-1-2-2-4-2-6l0-19c0-2 1-5 2-6 2-2 4-3 7-3l18 0c3 0 5 1 7 3 1 1 2 4 2 6z m0 73l0 19c0 2-1 5-2 6-2 2-4 3-7 3l-18 0c-3 0-5-1-7-3-1-1-2-4-2-6l0-19c0-2 1-4 2-6 2-2 4-3 7-3l18 0c3 0 5 1 7 3 1 2 2 4 2 6z m147-365l0 55c0 2-1 4-3 6-2 2-4 3-7 3l-91 0c-3 0-5-1-7-3-1-2-2-4-2-6l0-55c0-3 1-5 2-7 2-2 4-2 7-2l91 0c3 0 5 0 7 2 2 2 3 4 3 7z m0 146l0 18c0 3-1 5-3 7-2 2-4 2-7 2l-18 0c-3 0-5 0-6-2-2-2-3-4-3-7l0-18c0-3 1-5 3-7 1-1 3-2 6-2l18 0c3 0 5 1 7 2 2 2 3 4 3 7z m0 73l0 18c0 3-1 5-3 7-2 2-4 3-7 3l-18 0c-3 0-5-1-6-3-2-2-3-4-3-7l0-18c0-3 1-5 3-6 1-2 3-3 6-3l18 0c3 0 5 1 7 3 2 1 3 3 3 6z m0 73l0 19c0 2-1 4-3 6-2 2-4 3-7 3l-18 0c-3 0-5-1-6-3-2-2-3-4-3-6l0-19c0-2 1-5 3-6 1-2 3-3 6-3l18 0c3 0 5 1 7 3 2 1 3 4 3 6z m0 73l0 19c0 2-1 5-3 6-2 2-4 3-7 3l-18 0c-3 0-5-1-6-3-2-1-3-4-3-6l0-19c0-2 1-4 3-6 1-2 3-3 6-3l18 0c3 0 5 1 7 3 2 2 3 4 3 6z m73-292l0 18c0 3-1 5-3 7-2 1-4 2-6 2l-19 0c-2 0-5-1-6-2-2-2-3-4-3-7l0-18c0-3 1-5 3-7 1-1 4-2 6-2l19 0c2 0 4 1 6 2 2 2 3 4 3 7z m0 73l0 18c0 3-1 5-3 7-2 2-4 2-6 2l-19 0c-2 0-5 0-6-2-2-2-3-4-3-7l0-18c0-3 1-5 3-7 1-1 4-2 6-2l19 0c2 0 4 1 6 2 2 2 3 4 3 7z m0 73l0 18c0 3-1 5-3 7-2 2-4 3-6 3l-19 0c-2 0-5-1-6-3-2-2-3-4-3-7l0-18c0-3 1-5 3-6 1-2 4-3 6-3l19 0c2 0 4 1 6 3 2 1 3 3 3 6z m0 73l0 19c0 2-1 4-3 6-2 2-4 3-6 3l-19 0c-2 0-5-1-6-3-2-2-3-4-3-6l0-19c0-2 1-5 3-6 1-2 4-3 6-3l19 0c2 0 4 1 6 3 2 1 3 4 3 6z m0 73l0 19c0 2-1 5-3 6-2 2-4 3-6 3l-19 0c-2 0-5-1-6-3-2-1-3-4-3-6l0-19c0-2 1-4 3-6 1-2 4-3 6-3l19 0c2 0 4 1 6 3 2 2 3 4 3 6z"/>
<glyph glyph-name="building-o" unicode="&#60;" d="M165 137l0-18c0-3-1-5-3-7-2-1-4-2-7-2l-18 0c-2 0-4 1-6 2-2 2-3 4-3 7l0 18c0 3 1 5 3 7 2 1 4 2 6 2l18 0c3 0 5-1 7-2 2-2 3-4 3-7z m0 73l0-18c0-2-1-5-3-6-2-2-4-3-7-3l-18 0c-2 0-4 1-6 3-2 1-3 4-3 6l0 18c0 3 1 5 3 7 2 2 4 2 6 2l18 0c3 0 5 0 7-2 2-2 3-4 3-7z m73 0l0-18c0-2-1-5-3-6-2-2-4-3-6-3l-19 0c-2 0-4 1-6 3-2 1-3 4-3 6l0 18c0 3 1 5 3 7 2 2 4 2 6 2l19 0c2 0 4 0 6-2 2-2 3-4 3-7z m-73 73l0-18c0-2-1-4-3-6-2-2-4-3-7-3l-18 0c-2 0-4 1-6 3-2 2-3 4-3 6l0 18c0 3 1 5 3 7 2 2 4 3 6 3l18 0c3 0 5-1 7-3 2-2 3-4 3-7z m219-146l0-18c0-3-1-5-3-7-2-1-4-2-6-2l-18 0c-3 0-5 1-7 2-2 2-3 4-3 7l0 18c0 3 1 5 3 7 2 1 4 2 7 2l18 0c2 0 4-1 6-2 2-2 3-4 3-7z m-73 73l0-18c0-2-1-5-3-6-2-2-4-3-6-3l-19 0c-2 0-4 1-6 3-2 1-3 4-3 6l0 18c0 3 1 5 3 7 2 2 4 2 6 2l19 0c2 0 4 0 6-2 2-2 3-4 3-7z m-73 73l0-18c0-2-1-4-3-6-2-2-4-3-6-3l-19 0c-2 0-4 1-6 3-2 2-3 4-3 6l0 18c0 3 1 5 3 7 2 2 4 3 6 3l19 0c2 0 4-1 6-3 2-2 3-4 3-7z m-73 74l0-19c0-2-1-4-3-6-2-2-4-3-7-3l-18 0c-2 0-4 1-6 3-2 2-3 4-3 6l0 19c0 2 1 4 3 6 2 2 4 3 6 3l18 0c3 0 5-1 7-3 2-2 3-4 3-6z m219-147l0-18c0-2-1-5-3-6-2-2-4-3-6-3l-18 0c-3 0-5 1-7 3-2 1-3 4-3 6l0 18c0 3 1 5 3 7 2 2 4 2 7 2l18 0c2 0 4 0 6-2 2-2 3-4 3-7z m-73 73l0-18c0-2-1-4-3-6-2-2-4-3-6-3l-19 0c-2 0-4 1-6 3-2 2-3 4-3 6l0 18c0 3 1 5 3 7 2 2 4 3 6 3l19 0c2 0 4-1 6-3 2-2 3-4 3-7z m-73 74l0-19c0-2-1-4-3-6-2-2-4-3-6-3l-19 0c-2 0-4 1-6 3-2 2-3 4-3 6l0 19c0 2 1 4 3 6 2 2 4 3 6 3l19 0c2 0 4-1 6-3 2-2 3-4 3-6z m-73 73l0-19c0-2-1-4-3-6-2-2-4-3-7-3l-18 0c-2 0-4 1-6 3-2 2-3 4-3 6l0 19c0 2 1 4 3 6 2 2 4 3 6 3l18 0c3 0 5-1 7-3 2-2 3-4 3-6z m219-147l0-18c0-2-1-4-3-6-2-2-4-3-6-3l-18 0c-3 0-5 1-7 3-2 2-3 4-3 6l0 18c0 3 1 5 3 7 2 2 4 3 7 3l18 0c2 0 4-1 6-3 2-2 3-4 3-7z m-73 74l0-19c0-2-1-4-3-6-2-2-4-3-6-3l-19 0c-2 0-4 1-6 3-2 2-3 4-3 6l0 19c0 2 1 4 3 6 2 2 4 3 6 3l19 0c2 0 4-1 6-3 2-2 3-4 3-6z m-73 73l0-19c0-2-1-4-3-6-2-2-4-3-6-3l-19 0c-2 0-4 1-6 3-2 2-3 4-3 6l0 19c0 2 1 4 3 6 2 2 4 3 6 3l19 0c2 0 4-1 6-3 2-2 3-4 3-6z m146-73l0-19c0-2-1-4-3-6-2-2-4-3-6-3l-18 0c-3 0-5 1-7 3-2 2-3 4-3 6l0 19c0 2 1 4 3 6 2 2 4 3 7 3l18 0c2 0 4-1 6-3 2-2 3-4 3-6z m-73 73l0-19c0-2-1-4-3-6-2-2-4-3-6-3l-19 0c-2 0-4 1-6 3-2 2-3 4-3 6l0 19c0 2 1 4 3 6 2 2 4 3 6 3l19 0c2 0 4-1 6-3 2-2 3-4 3-6z m73 0l0-19c0-2-1-4-3-6-2-2-4-3-6-3l-18 0c-3 0-5 1-7 3-2 2-3 4-3 6l0 19c0 2 1 4 3 6 2 2 4 3 7 3l18 0c2 0 4-1 6-3 2-2 3-4 3-6z m-73-393l110 0 0 438-330 0 0-438 110 0 0 64c0 2 1 4 3 6 2 2 4 3 6 3l92 0c2 0 4-1 6-3 2-2 3-4 3-6z m146 457l0-476c0-5-2-9-5-13-4-3-8-5-13-5l-366 0c-5 0-9 2-13 5-3 4-5 8-5 13l0 476c0 5 2 9 5 13 4 3 8 5 13 5l366 0c5 0 9-2 13-5 3-4 5-8 5-13z"/>
<glyph glyph-name="bullhorn" unicode="&#61;" d="M475 329c11 0 19-3 26-11 7-7 11-15 11-25 0-11-4-19-11-26-7-7-15-11-26-11l0-110c0-10-3-18-10-25-8-8-16-11-26-11-80 66-157 102-232 108-11-3-20-10-26-19-6-9-9-18-9-28 0-10 4-19 11-27-3-6-6-12-6-18-1-7 0-12 2-17 1-5 4-10 9-16 5-5 9-10 14-14 4-4 10-9 17-14-5-11-16-19-31-24-16-5-32-6-49-3-16 2-29 7-37 15-2 5-4 13-9 25-4 13-7 22-9 27-2 6-4 15-6 26-3 11-4 21-5 29 0 8 0 17 1 28 1 11 3 21 7 31l-35 0c-13 0-24 5-33 14-9 9-13 20-13 32l0 55c0 13 4 23 13 32 9 9 20 14 33 14l137 0c83 0 168 36 256 109 10 0 18-3 26-10 7-8 10-16 10-26z m-36-172l0 272c-75-57-148-90-220-98l0-77c72-8 145-40 220-97z"/>
<glyph glyph-name="bullseye" unicode="&#62;" d="M329 256c0-20-7-37-21-52-15-14-32-21-52-21-20 0-37 7-52 21-14 15-21 32-21 52 0 20 7 37 21 52 15 14 32 21 52 21 20 0 37-7 52-21 14-15 21-32 21-52z m37 0c0 30-11 56-32 78-22 21-48 32-78 32-30 0-56-11-78-32-21-22-32-48-32-78 0-30 11-56 32-78 22-21 48-32 78-32 30 0 56 11 78 32 21 22 32 48 32 78z m36 0c0-40-14-75-43-103-28-29-63-43-103-43-40 0-75 14-103 43-29 28-43 63-43 103 0 40 14 75 43 103 28 29 63 43 103 43 40 0 75-14 103-43 29-28 43-63 43-103z m37 0c0 25-5 48-15 71-9 23-22 42-39 58-16 17-35 30-58 39-23 10-46 15-71 15-25 0-48-5-71-15-23-9-42-22-58-39-17-16-30-35-39-58-10-23-15-46-15-71 0-25 5-48 15-71 9-23 22-42 39-58 16-17 35-30 58-39 23-10 46-15 71-15 25 0 48 5 71 15 23 9 42 22 58 39 17 16 30 35 39 58 10 23 15 46 15 71z m36 0c0-40-9-77-29-110-20-34-46-60-80-80-33-20-70-29-110-29-40 0-77 9-110 29-34 20-60 46-80 80-20 33-29 70-29 110 0 40 9 77 29 110 20 34 46 60 80 80 33 20 70 29 110 29 40 0 77-9 110-29 34-20 60-46 80-80 20-33 29-70 29-110z"/>
<glyph glyph-name="bus" unicode="&#63;" d="M146 165c0 10-3 18-10 25-8 8-16 11-26 11-10 0-19-3-26-11-7-7-11-15-11-25 0-11 4-19 11-26 7-7 16-11 26-11 10 0 18 4 26 11 7 7 10 15 10 26z m293 0c0 10-4 18-11 25-7 8-16 11-26 11-10 0-18-3-26-11-7-7-10-15-10-25 0-11 3-19 10-26 8-7 16-11 26-11 10 0 19 4 26 11 7 7 11 15 11 26z m-13 113l-21 109c-1 5-3 8-6 11-4 3-7 4-12 4l-262 0c-5 0-8-1-12-4-3-3-5-6-6-11l-21-109c-1-6 1-11 4-15 4-5 9-7 14-7l304 0c5 0 10 2 14 7 3 4 5 9 4 15z m-65 175c0 3-1 7-4 9-3 3-6 4-10 4l-182 0c-4 0-7-1-10-4-3-2-4-6-4-9 0-4 1-7 4-10 3-3 6-4 10-4l182 0c4 0 7 1 10 4 3 3 4 6 4 10z m114-208l0-172-36 0 0-36c0-11-4-19-11-26-7-7-16-11-26-11-10 0-18 4-26 11-7 7-10 15-10 26l0 36-220 0 0-36c0-11-3-19-10-26-8-7-16-11-26-11-10 0-19 4-26 11-7 7-11 15-11 26l0 36-36 0 0 172c0 22 2 43 7 64l29 130c2 15 11 28 28 39 17 11 39 20 66 25 27 6 56 9 89 9 33 0 62-3 89-9 27-5 49-14 66-25 17-11 26-24 28-39l30-130c4-19 6-41 6-64z"/>
<glyph glyph-name="calculator" unicode="&#91;" d="M110 73c0 10-4 19-11 26-7 7-16 11-26 11-10 0-19-4-26-11-7-7-10-16-10-26 0-10 3-19 10-26 7-7 16-10 26-10 10 0 19 3 26 10 7 7 11 16 11 26z m109 0c0 10-3 19-10 26-7 7-16 11-26 11-10 0-19-4-26-11-7-7-11-16-11-26 0-10 4-19 11-26 7-7 16-10 26-10 10 0 19 3 26 10 7 7 10 16 10 26z m-109 110c0 10-4 19-11 26-7 7-16 10-26 10-10 0-19-3-26-10-7-7-10-16-10-26 0-10 3-19 10-26 7-7 16-11 26-11 10 0 19 4 26 11 7 7 11 16 11 26z m219-110c0 10-3 19-11 26-7 7-15 11-25 11-11 0-19-4-26-11-7-7-11-16-11-26 0-10 4-19 11-26 7-7 15-10 26-10 10 0 18 3 25 10 8 7 11 16 11 26z m-110 110c0 10-3 19-10 26-7 7-16 10-26 10-10 0-19-3-26-10-7-7-11-16-11-26 0-10 4-19 11-26 7-7 16-11 26-11 10 0 19 4 26 11 7 7 10 16 10 26z m-109 110c0 10-4 18-11 25-7 8-16 11-26 11-10 0-19-3-26-11-7-7-10-15-10-25 0-11 3-19 10-26 7-7 16-11 26-11 10 0 19 4 26 11 7 7 11 15 11 26z m219-110c0 10-3 19-11 26-7 7-15 10-25 10-11 0-19-3-26-10-7-7-11-16-11-26 0-10 4-19 11-26 7-7 15-11 26-11 10 0 18 4 25 11 8 7 11 16 11 26z m-110 110c0 10-3 18-10 25-7 8-16 11-26 11-10 0-19-3-26-11-7-7-11-15-11-25 0-11 4-19 11-26 7-7 16-11 26-11 10 0 19 4 26 11 7 7 10 15 10 26z m220-220l0 110c0 10-4 18-11 26-7 7-16 10-26 10-10 0-18-3-25-10-8-8-11-16-11-26l0-110c0-10 3-18 11-26 7-7 15-10 25-10 10 0 19 3 26 10 7 8 11 16 11 26z m-110 220c0 10-3 18-11 25-7 8-15 11-25 11-11 0-19-3-26-11-7-7-11-15-11-25 0-11 4-19 11-26 7-7 15-11 26-11 10 0 18 4 25 11 8 7 11 15 11 26z m110 91l0 73c0 5-2 9-6 13-3 4-7 5-12 5l-366 0c-5 0-9-1-13-5-4-4-5-8-5-13l0-73c0-5 1-9 5-13 4-3 8-5 13-5l366 0c5 0 9 2 12 5 4 4 6 8 6 13z m0-91c0 10-4 18-11 25-7 8-16 11-26 11-10 0-18-3-26-11-7-7-10-15-10-25 0-11 3-19 10-26 8-7 16-11 26-11 10 0 19 4 26 11 7 7 11 15 11 26z m36 182l0-438c0-10-3-19-10-26-8-7-16-11-26-11l-402 0c-10 0-19 4-26 11-7 7-11 16-11 26l0 438c0 10 4 19 11 26 7 7 16 11 26 11l402 0c10 0 18-4 26-11 7-7 10-16 10-26z"/>
<glyph glyph-name="calendar" unicode="&#93;" d="M55 37l82 0 0 82-82 0z m100 0l92 0 0 82-92 0z m-100 100l82 0 0 92-82 0z m100 0l92 0 0 92-92 0z m-100 110l82 0 0 82-82 0z m210-210l92 0 0 82-92 0z m-110 210l92 0 0 82-92 0z m220-210l82 0 0 82-82 0z m-110 100l92 0 0 92-92 0z m-100 247l0 82c0 3-1 5-3 7-2 2-4 2-7 2l-18 0c-2 0-4 0-6-2-2-2-3-4-3-7l0-82c0-2 1-5 3-6 2-2 4-3 6-3l18 0c3 0 5 1 7 3 2 1 3 4 3 6z m210-247l82 0 0 92-82 0z m-110 110l92 0 0 82-92 0z m110 0l82 0 0 82-82 0z m9 137l0 82c0 3-1 5-3 7-2 2-4 2-6 2l-18 0c-3 0-5 0-7-2-2-2-3-4-3-7l0-82c0-2 1-5 3-6 2-2 4-3 7-3l18 0c2 0 4 1 6 3 2 1 3 4 3 6z m110 18l0-365c0-10-4-19-11-26-7-7-16-11-26-11l-402 0c-10 0-19 4-26 11-7 7-11 16-11 26l0 365c0 10 4 19 11 26 7 7 16 11 26 11l36 0 0 27c0 13 5 24 14 33 9 9 20 13 32 13l18 0c13 0 24-4 33-13 9-9 13-20 13-33l0-27 110 0 0 27c0 13 4 24 13 33 9 9 20 13 33 13l18 0c12 0 23-4 32-13 9-9 14-20 14-33l0-27 36 0c10 0 19-4 26-11 7-7 11-16 11-26z"/>
<glyph glyph-name="calendar-check-o" unicode="&#94;" d="M372 237l-146-147c-2-1-4-2-7-2-2 0-4 1-6 2l-82 83c-2 1-3 4-3 6 0 3 1 5 3 6l13 14c1 1 4 2 6 2 2 0 5-1 7-2l62-63 127 127c2 1 4 2 7 2 2 0 4-1 6-2l13-14c2-1 3-3 3-6 0-2-1-5-3-6z m-335-200l402 0 0 292-402 0z m109 347l0 82c0 3-1 5-2 7-2 2-4 2-7 2l-18 0c-3 0-5 0-7-2-1-2-2-4-2-7l0-82c0-3 1-5 2-7 2-1 4-2 7-2l18 0c3 0 5 1 7 2 1 2 2 4 2 7z m220 0l0 82c0 3-1 5-3 7-2 2-4 2-6 2l-19 0c-2 0-5 0-6-2-2-2-3-4-3-7l0-82c0-3 1-5 3-7 1-1 4-2 6-2l19 0c2 0 4 1 6 2 2 2 3 4 3 7z m109 18l0-365c0-10-3-19-10-26-8-7-16-11-26-11l-402 0c-10 0-19 4-26 11-7 7-11 16-11 26l0 365c0 10 4 19 11 26 7 7 16 11 26 11l36 0 0 27c0 13 5 24 14 33 9 9 19 13 32 13l18 0c13 0 23-4 32-13 9-9 14-20 14-33l0-27 110 0 0 27c0 13 4 24 13 33 9 9 20 13 32 13l19 0c12 0 23-4 32-13 9-9 13-20 13-33l0-27 37 0c10 0 18-4 26-11 7-7 10-16 10-26z"/>
<glyph glyph-name="calendar-minus-o" unicode="&#95;" d="M329 192l0-18c0-3-1-5-2-7-2-2-4-2-7-2l-165 0c-2 0-4 0-6 2-2 2-3 4-3 7l0 18c0 3 1 5 3 7 2 1 4 2 6 2l165 0c3 0 5-1 7-2 1-2 2-4 2-7z m-292-155l402 0 0 292-402 0z m109 347l0 82c0 3-1 5-2 7-2 2-4 2-7 2l-18 0c-3 0-5 0-7-2-1-2-2-4-2-7l0-82c0-3 1-5 2-7 2-1 4-2 7-2l18 0c3 0 5 1 7 2 1 2 2 4 2 7z m220 0l0 82c0 3-1 5-3 7-2 2-4 2-6 2l-19 0c-2 0-5 0-6-2-2-2-3-4-3-7l0-82c0-3 1-5 3-7 1-1 4-2 6-2l19 0c2 0 4 1 6 2 2 2 3 4 3 7z m109 18l0-365c0-10-3-19-10-26-8-7-16-11-26-11l-402 0c-10 0-19 4-26 11-7 7-11 16-11 26l0 365c0 10 4 19 11 26 7 7 16 11 26 11l36 0 0 27c0 13 5 24 14 33 9 9 19 13 32 13l18 0c13 0 23-4 32-13 9-9 14-20 14-33l0-27 110 0 0 27c0 13 4 24 13 33 9 9 20 13 32 13l19 0c12 0 23-4 32-13 9-9 13-20 13-33l0-27 37 0c10 0 18-4 26-11 7-7 10-16 10-26z"/>
<glyph glyph-name="calendar-o" unicode="&#96;" d="M55 37l402 0 0 292-402 0z m110 347l0 82c0 3-1 5-3 7-2 2-4 2-7 2l-18 0c-3 0-5 0-6-2-2-2-3-4-3-7l0-82c0-3 1-5 3-7 1-1 3-2 6-2l18 0c3 0 5 1 7 2 2 2 3 4 3 7z m219 0l0 82c0 3-1 5-3 7-1 2-3 2-6 2l-18 0c-3 0-5 0-7-2-2-2-3-4-3-7l0-82c0-3 1-5 3-7 2-1 4-2 7-2l18 0c3 0 5 1 6 2 2 2 3 4 3 7z m110 18l0-365c0-10-4-19-11-26-7-7-16-11-26-11l-402 0c-10 0-19 4-26 11-7 7-11 16-11 26l0 365c0 10 4 19 11 26 7 7 16 11 26 11l36 0 0 27c0 13 5 24 14 33 9 9 20 13 32 13l18 0c13 0 24-4 33-13 9-9 13-20 13-33l0-27 110 0 0 27c0 13 4 24 13 33 9 9 20 13 33 13l18 0c12 0 23-4 32-13 9-9 14-20 14-33l0-27 36 0c10 0 19-4 26-11 7-7 11-16 11-26z"/>
<glyph glyph-name="calendar-plus-o" unicode="&#123;" d="M439 439c10 0 18-4 26-11 7-7 10-16 10-26l0-365c0-10-3-19-10-26-8-7-16-11-26-11l-402 0c-10 0-19 4-26 11-7 7-11 16-11 26l0 365c0 10 4 19 11 26 7 7 16 11 26 11l36 0 0 27c0 13 5 24 14 33 9 9 19 13 32 13l18 0c13 0 23-4 32-13 9-9 14-20 14-33l0-27 110 0 0 27c0 13 4 24 13 33 9 9 20 13 32 13l19 0c12 0 23-4 32-13 9-9 13-20 13-33l0-27z m-110 27l0-82c0-3 1-5 3-7 1-1 4-2 6-2l19 0c2 0 4 1 6 2 2 2 3 4 3 7l0 82c0 3-1 5-3 7-2 2-4 2-6 2l-19 0c-2 0-5 0-6-2-2-2-3-4-3-7z m-219 0l0-82c0-3 1-5 2-7 2-1 4-2 7-2l18 0c3 0 5 1 7 2 1 2 2 4 2 7l0 82c0 3-1 5-2 7-2 2-4 2-7 2l-18 0c-3 0-5 0-7-2-1-2-2-4-2-7z m329-429l0 292-402 0 0-292z m-183 164l64 0c3 0 5-1 7-2 1-2 2-4 2-7l0-18c0-3-1-5-2-7-2-2-4-2-7-2l-64 0 0-64c0-3-1-5-3-7-1-2-3-3-6-3l-18 0c-3 0-5 1-7 3-2 2-3 4-3 7l0 64-64 0c-2 0-4 0-6 2-2 2-3 4-3 7l0 18c0 3 1 5 3 7 2 1 4 2 6 2l64 0 0 64c0 3 1 5 3 7 2 1 4 2 7 2l18 0c3 0 5-1 6-2 2-2 3-4 3-7z"/>
<glyph glyph-name="calendar-times-o" unicode="&#124;" d="M317 116l-13-13c-1-2-4-2-6-2-2 0-5 0-7 2l-53 54-54-54c-2-2-4-2-7-2-2 0-4 0-6 2l-13 13c-2 2-3 4-3 7 0 2 1 4 3 6l54 54-54 54c-2 1-3 4-3 6 0 3 1 5 3 6l13 14c2 1 4 2 6 2 3 0 5-1 7-2l54-54 53 54c2 1 5 2 7 2 2 0 5-1 6-2l13-14c2-1 3-3 3-6 0-2-1-5-3-6l-53-54 53-54c2-2 3-4 3-6 0-3-1-5-3-7z m-280-79l402 0 0 292-402 0z m109 347l0 82c0 3-1 5-2 7-2 2-4 2-7 2l-18 0c-3 0-5 0-7-2-1-2-2-4-2-7l0-82c0-3 1-5 2-7 2-1 4-2 7-2l18 0c3 0 5 1 7 2 1 2 2 4 2 7z m220 0l0 82c0 3-1 5-3 7-2 2-4 2-6 2l-19 0c-2 0-5 0-6-2-2-2-3-4-3-7l0-82c0-3 1-5 3-7 1-1 4-2 6-2l19 0c2 0 4 1 6 2 2 2 3 4 3 7z m109 18l0-365c0-10-3-19-10-26-8-7-16-11-26-11l-402 0c-10 0-19 4-26 11-7 7-11 16-11 26l0 365c0 10 4 19 11 26 7 7 16 11 26 11l36 0 0 27c0 13 5 24 14 33 9 9 19 13 32 13l18 0c13 0 23-4 32-13 9-9 14-20 14-33l0-27 110 0 0 27c0 13 4 24 13 33 9 9 20 13 32 13l19 0c12 0 23-4 32-13 9-9 13-20 13-33l0-27 37 0c10 0 18-4 26-11 7-7 10-16 10-26z"/>
<glyph glyph-name="camera" unicode="&#125;" d="M256 320c23 0 42-8 58-24 16-16 24-36 24-58 0-23-8-42-24-58-16-17-35-25-58-25-23 0-42 8-58 25-16 16-24 35-24 58 0 22 8 42 24 58 16 16 35 24 58 24z m201 119c20 0 38-7 52-22 14-14 21-31 21-51l0-256c0-20-7-38-21-52-14-14-32-21-52-21l-402 0c-20 0-38 7-52 21-14 14-21 32-21 52l0 256c0 20 7 37 21 51 14 15 32 22 52 22l64 0 14 39c4 9 11 17 20 24 10 7 20 10 30 10l146 0c10 0 20-3 30-10 9-7 16-15 20-24l14-39z m-201-329c35 0 65 12 90 37 25 25 38 55 38 91 0 35-13 65-38 90-25 25-55 38-90 38-35 0-65-13-90-38-25-25-38-55-38-90 0-36 13-66 38-91 25-25 55-37 90-37z"/>
<glyph glyph-name="camera-retro" unicode="&#126;" d="M265 274c0 3-1 5-2 7-2 2-4 2-7 2-13 0-23-4-32-13-9-9-14-20-14-32 0-3 1-5 3-7 2-2 4-2 6-2 3 0 5 0 7 2 2 2 3 4 3 7 0 7 2 14 8 19 5 5 11 8 19 8 3 0 5 1 7 3 1 1 2 4 2 6z m64-37c0-20-7-37-21-52-15-14-32-21-52-21-20 0-37 7-52 21-14 15-21 32-21 52 0 20 7 38 21 52 15 14 32 21 52 21 20 0 37-7 52-21 14-14 21-32 21-52z m-292-164l438 0 0 37-438 0z m329 164c0 30-11 56-32 78-22 21-48 32-78 32-30 0-56-11-78-32-21-22-32-48-32-78 0-30 11-56 32-77 22-22 48-33 78-33 30 0 56 11 78 33 21 21 32 47 32 77z m-293 184l110 0 0 36-110 0z m-36-55l438 0 0 73-236 0-18-37-184 0z m475 73l0-366c0-10-4-19-11-26-7-7-15-10-26-10l-438 0c-11 0-19 3-26 10-7 7-11 16-11 26l0 366c0 10 4 19 11 26 7 7 15 10 26 10l438 0c11 0 19-3 26-10 7-7 11-16 11-26z"/>
<glyph glyph-name="car" unicode="&#92;" d="M101 201c0 13-5 23-14 32-9 9-20 14-32 14-13 0-23-5-32-14-9-9-14-19-14-32 0-12 5-23 14-32 9-9 19-14 32-14 12 0 23 5 32 14 9 9 14 20 14 32z m10 92l290 0-25 102c-1 1-2 3-4 5-3 1-5 2-6 2l-220 0c-1 0-3-1-6-2-2-2-3-4-4-5z m392-92c0 13-5 23-14 32-9 9-19 14-32 14-12 0-23-5-32-14-9-9-14-19-14-32 0-12 5-23 14-32 9-9 20-14 32-14 13 0 23 5 32 14 9 9 14 20 14 32z m46 28l0-110c0-3-1-5-3-7-2-1-4-2-7-2l-27 0 0-37c0-15-5-28-16-39-11-10-24-16-39-16-15 0-28 6-39 16-10 11-16 24-16 39l0 37-292 0 0-37c0-15-6-28-16-39-11-10-24-16-39-16-15 0-28 6-39 16-11 11-16 24-16 39l0 37-27 0c-3 0-5 1-7 2-2 2-3 4-3 7l0 110c0 17 7 32 19 45 13 12 28 19 45 19l8 0 30 119c5 18 15 33 30 45 16 12 33 18 51 18l220 0c18 0 35-6 51-18 15-12 25-27 30-45l30-119 8 0c17 0 32-7 45-19 12-13 19-28 19-45z"/>
<glyph glyph-name="caret-down" unicode="&#57344;" d="M402 311c0-5-2-9-5-13l-128-128c-4-4-8-5-13-5-5 0-9 1-13 5l-128 128c-3 4-5 8-5 13 0 5 2 9 5 13 4 3 8 5 13 5l256 0c5 0 9-2 13-5 3-4 5-8 5-13z"/>
<glyph glyph-name="caret-left" unicode="&#57345;" d="M347 384l0-256c0-5-1-9-5-13-4-3-8-5-13-5-5 0-9 2-13 5l-128 128c-3 4-5 8-5 13 0 5 2 9 5 13l128 128c4 3 8 5 13 5 5 0 9-2 13-5 4-4 5-8 5-13z"/>
<glyph glyph-name="caret-right" unicode="&#57346;" d="M329 256c0-5-2-9-5-13l-128-128c-4-3-8-5-13-5-5 0-9 2-13 5-4 4-5 8-5 13l0 256c0 5 1 9 5 13 4 3 8 5 13 5 5 0 9-2 13-5l128-128c3-4 5-8 5-13z"/>
<glyph glyph-name="caret-square-o-down" unicode="&#57347;" d="M364 319c3-7 3-13-2-19l-91-128c-4-5-9-7-15-7-6 0-11 2-15 7l-91 128c-5 6-5 12-2 19 4 7 9 10 17 10l182 0c8 0 13-3 17-10z m38-200l0 274c0 3-1 5-2 7-2 1-4 2-7 2l-274 0c-3 0-5-1-7-2-1-2-2-4-2-7l0-274c0-3 1-5 2-7 2-1 4-2 7-2l274 0c3 0 5 1 7 2 1 2 2 4 2 7z m73 274l0-274c0-23-8-42-24-58-16-16-35-24-58-24l-274 0c-23 0-42 8-58 24-16 16-24 35-24 58l0 274c0 23 8 42 24 58 16 16 35 24 58 24l274 0c23 0 42-8 58-24 16-16 24-35 24-58z"/>
<glyph glyph-name="caret-square-o-left" unicode="&#57348;" d="M329 347l0-182c0-5-2-10-5-13-4-4-8-6-13-6-4 0-7 1-11 4l-128 91c-5 4-7 9-7 15 0 6 2 11 7 15l128 91c4 3 7 4 11 4 5 0 9-2 13-6 3-3 5-8 5-13z m73-228l0 274c0 3-1 5-2 7-2 1-4 2-7 2l-274 0c-3 0-5-1-7-2-1-2-2-4-2-7l0-274c0-3 1-5 2-7 2-1 4-2 7-2l274 0c3 0 5 1 7 2 1 2 2 4 2 7z m73 274l0-274c0-23-8-42-24-58-16-16-35-24-58-24l-274 0c-23 0-42 8-58 24-16 16-24 35-24 58l0 274c0 23 8 42 24 58 16 16 35 24 58 24l274 0c23 0 42-8 58-24 16-16 24-35 24-58z"/>
<glyph glyph-name="caret-square-o-right" unicode="&#57349;" d="M347 256c0-6-2-11-7-15l-128-91c-6-5-12-5-19-2-7 4-10 9-10 17l0 182c0 8 3 13 10 17 7 3 13 3 19-2l128-91c5-4 7-9 7-15z m55-137l0 274c0 3-1 5-2 7-2 1-4 2-7 2l-274 0c-3 0-5-1-7-2-1-2-2-4-2-7l0-274c0-3 1-5 2-7 2-1 4-2 7-2l274 0c3 0 5 1 7 2 1 2 2 4 2 7z m73 274l0-274c0-23-8-42-24-58-16-16-35-24-58-24l-274 0c-23 0-42 8-58 24-16 16-24 35-24 58l0 274c0 23 8 42 24 58 16 16 35 24 58 24l274 0c23 0 42-8 58-24 16-16 24-35 24-58z"/>
<glyph glyph-name="caret-square-o-up" unicode="&#57350;" d="M364 193c-4-7-9-10-17-10l-182 0c-8 0-13 3-17 10-3 7-3 13 2 19l91 128c4 5 9 7 15 7 6 0 11-2 15-7l91-128c5-6 5-12 2-19z m38-74l0 274c0 3-1 5-2 7-2 1-4 2-7 2l-274 0c-3 0-5-1-7-2-1-2-2-4-2-7l0-274c0-3 1-5 2-7 2-1 4-2 7-2l274 0c3 0 5 1 7 2 1 2 2 4 2 7z m73 274l0-274c0-23-8-42-24-58-16-16-35-24-58-24l-274 0c-23 0-42 8-58 24-16 16-24 35-24 58l0 274c0 23 8 42 24 58 16 16 35 24 58 24l274 0c23 0 42-8 58-24 16-16 24-35 24-58z"/>
<glyph glyph-name="caret-up" unicode="&#57351;" d="M402 165c0-5-2-10-5-13-4-4-8-6-13-6l-256 0c-5 0-9 2-13 6-3 3-5 8-5 13 0 5 2 9 5 12l128 128c4 4 8 6 13 6 5 0 9-2 13-6l128-128c3-3 5-7 5-12z"/>
<glyph glyph-name="cart-arrow-down" unicode="&#57352;" d="M384 311c0 5-2 9-5 13-4 3-8 5-13 5-5 0-10-2-13-5l-42-42 0 84c0 5-2 9-6 13-3 3-7 5-12 5-5 0-10-2-13-5-4-4-6-8-6-13l0-84-42 42c-3 3-8 5-13 5-5 0-9-2-12-5-4-4-6-8-6-13 0-5 2-9 6-13l73-73c3-4 8-6 13-6 5 0 9 2 12 6l74 73c3 4 5 8 5 13z m-183-238c0-10-3-19-11-26-7-7-15-10-25-10-11 0-19 3-26 10-7 7-11 16-11 26 0 10 4 19 11 26 7 7 15 11 26 11 10 0 18-4 25-11 8-7 11-16 11-26z m256 0c0-10-3-19-11-26-7-7-15-10-25-10-11 0-19 3-26 10-7 7-11 16-11 26 0 10 4 19 11 26 7 7 15 11 26 11 10 0 18-4 25-11 8-7 11-16 11-26z m37 311l0-146c0-5-2-9-5-12-3-4-7-6-12-7l-298-34c0-2 1-4 1-7 1-2 2-5 2-7 1-2 1-5 1-6 0-3-2-10-7-19l263 0c5 0 9-2 13-5 3-4 5-8 5-13 0-5-2-9-5-13-4-3-8-5-13-5l-293 0c-5 0-9 2-13 5-3 4-5 8-5 13 0 3 1 6 3 11 2 5 5 11 9 17 3 7 5 10 5 11l-50 235-58 0c-5 0-10 2-13 6-4 3-6 8-6 13 0 5 2 9 6 12 3 4 8 6 13 6l73 0c3 0 5-1 8-2 2-1 4-3 6-4 1-2 2-4 3-7 1-3 2-6 2-8 1-2 1-5 2-8 1-4 1-6 1-8l343 0c5 0 10-2 13-5 4-4 6-8 6-13z"/>
<glyph glyph-name="cart-plus" unicode="&#57353;" d="M366 311c0 5-2 9-6 13-3 3-8 5-13 5l-36 0 0 37c0 5-2 9-6 13-3 3-7 5-12 5-5 0-10-2-13-5-4-4-6-8-6-13l0-37-36 0c-5 0-10-2-13-5-4-4-6-8-6-13 0-5 2-9 6-13 3-4 8-5 13-5l36 0 0-37c0-5 2-9 6-13 3-3 8-5 13-5 5 0 9 2 12 5 4 4 6 8 6 13l0 37 36 0c5 0 10 1 13 5 4 4 6 8 6 13z m-165-238c0-10-3-19-11-26-7-7-15-10-25-10-11 0-19 3-26 10-7 7-11 16-11 26 0 10 4 19 11 26 7 7 15 11 26 11 10 0 18-4 25-11 8-7 11-16 11-26z m256 0c0-10-3-19-11-26-7-7-15-10-25-10-11 0-19 3-26 10-7 7-11 16-11 26 0 10 4 19 11 26 7 7 15 11 26 11 10 0 18-4 25-11 8-7 11-16 11-26z m37 311l0-146c0-5-2-9-5-12-3-4-7-6-12-7l-298-34c0-2 1-4 1-7 1-2 2-5 2-7 1-2 1-5 1-6 0-3-2-10-7-19l263 0c5 0 9-2 13-5 3-4 5-8 5-13 0-5-2-9-5-13-4-3-8-5-13-5l-293 0c-5 0-9 2-13 5-3 4-5 8-5 13 0 3 1 6 3 11 2 5 5 11 9 17 3 7 5 10 5 11l-50 235-58 0c-5 0-10 2-13 6-4 3-6 8-6 13 0 5 2 9 6 12 3 4 8 6 13 6l73 0c3 0 5-1 8-2 2-1 4-3 6-4 1-2 2-4 3-7 1-3 2-6 2-8 1-2 1-5 2-8 1-4 1-6 1-8l343 0c5 0 10-2 13-5 4-4 6-8 6-13z"/>
<glyph glyph-name="cc-amex" unicode="&#57355;" d="M-39 317l25 0-13 31z m177-150l21 22-20 23-46 0 0-14 40 0 0-16-40 0 0-15z m45 22l29-31 0 62z m83 14c0 6-4 9-12 9l-24 0 0-20 24 0c8 0 12 4 12 11z m82 1c0 5-4 8-12 8l-23 0 0-17 23 0c8 0 12 3 12 9z m-79 133c0 5-4 8-12 8l-24 0 0-17 24 0c8 0 12 3 12 9z m131-20l25 0-12 31z m-273 44l0-77-19 0 0 61-27-61-16 0-27 61 0-61-38 0-7 17-39 0-7-17-20 0 33 77 28 0 31-73 0 73 30 0 25-52 22 52z m158-158c0-4 0-8-1-10-1-3-3-6-4-8-2-1-4-3-7-4-2-2-5-2-7-3-2-1-5-1-9-1-4-1-7-1-9-1-2 0-5 0-9 0-4 1-7 1-9 1l0-26-36 0-23 25-23-25-73 0 0 77 74 0 23-25 23 25 59 0c21 0 31-8 31-25z m-83 97l0-16-62 0 0 77 62 0 0-16-43 0 0-14 42 0 0-16-42 0 0-15z m383-160l0-65c0-11-4-20-11-27-7-8-16-11-27-11l-582 0c-11 0-20 3-27 11-7 7-11 16-11 27l0 194 32 0 7 17 15 0 8-17 62 0 0 13 5-13 33 0 5 13 0-13 155 0 0 28 3 0c2 0 3-1 3-4l0-24 79 0 0 6c5-2 10-4 16-5 6-1 11-2 15-2 4 0 10 0 18 0 8 0 13 1 15 1l7 17 16 0 7-17 65 0 0 16 10-16 52 0 0 108-52 0 0-13-7 13-53 0 0-13-6 13-72 0c-13 0-23-3-31-7l0 7-49 0 0-7c-4 4-11 7-21 7l-179 0-12-28-13 28-56 0 0-13-7 13-48 0-22-52 0 112c0 11 4 20 11 27 7 8 16 11 27 11l582 0c11 0 20-3 27-11 7-7 11-16 11-27l0-194-34 0c-10 0-18-2-23-6l0 6-51 0c-10 0-18-2-22-6l0 6-90 0 0-6c-6 4-15 6-25 6l-60 0 0-6c-4 4-13 6-26 6l-67 0-15-16-15 16-99 0 0-108 98 0 15 17 15-17 61 0 0 26 6 0c11 0 19 1 25 4l0-30 50 0 0 29 2 0c2 0 3 0 3-1 1 0 1-1 1-3l0-25 151 0c11 0 19 3 25 7l0-7 48 0c11 0 20 2 27 5z m-216 67c0-4-2-8-4-12-2-4-5-7-10-8 5-2 8-5 10-8 2-3 3-7 3-13l0-15-19 0 0 12c0 7-1 11-3 13-3 2-7 3-13 3l-20 0 0-28-19 0 0 77 44 0c9 0 17-1 22-4 6-3 9-9 9-17z m-80 134c0-5-1-9-3-13-3-4-6-7-10-8 5-2 9-4 10-8 2-3 3-7 3-13l0-15-19 0c0 2 0 4 0 8 0 3 0 5 0 7 0 1 0 3-1 5-1 2-1 4-2 5-1 1-3 1-5 2-3 1-6 1-9 1l-20 0 0-28-18 0 0 77 44 0c9 0 16-1 22-4 5-3 8-8 8-16z m152-174l0-16-62 0 0 77 62 0 0-16-44 0 0-14 43 0 0-16-43 0 0-15z m-122 194l0-77-19 0 0 77z m198-186c0-16-10-24-29-24l-36 0 0 16 36 0c6 0 9 3 9 7 0 3-1 5-4 6-4 1-8 2-12 2-5 0-10 0-14 1-5 0-9 3-12 6-4 4-5 9-5 16 0 7 2 13 7 17 5 4 11 6 19 6l37 0 0-16-34 0c-7 0-10-3-10-7 0-3 2-5 5-6 3-1 7-2 12-1 5 0 9-1 14-1 5-1 9-3 12-6 3-4 5-9 5-16z m68 14l0-28c-4-7-13-10-25-10l-36 0 0 16 36 0c6 0 9 3 9 7 0 3-1 5-3 6-3 1-5 1-9 1-4 0-7 0-11 1-5 0-8 1-12 2-3 1-6 3-9 7-2 4-3 8-3 14 0 7 2 13 7 17 5 4 12 6 19 6l37 0 0-16-34 0c-6 0-10-3-10-7 0-4 3-6 8-7 6 0 12-1 20-1 8-1 13-3 16-8z m-47 172l0-77-26 0-35 58 0-58-38 0-7 17-39 0-7-17-21 0c-25 0-37 13-37 38 0 26 13 39 38 39l18 0 0-16c-1 0-4 0-8 0-4 0-7 0-8 0-2 0-4 0-7-1-3 0-5 0-6-1-1-1-2-3-4-4-2-2-3-4-3-7-1-3-1-6-1-9 0-8 1-13 4-17 2-4 7-6 14-6l8 0 26 61 28 0 31-73 0 73 29 0 32-54 0 54z"/>
<glyph glyph-name="cc-diners-club" unicode="&#57356;" d="M172 157l0 198c-20-7-37-20-49-38-13-18-19-38-19-61 0-22 6-42 19-60 12-18 29-31 49-39z m144 99c0 23-6 43-19 61-12 18-29 31-49 38l0-198c20 8 37 21 49 39 13 18 19 38 19 60z m61 0c0-30-7-58-22-84-15-25-35-46-61-61-26-15-54-22-84-22-23 0-44 4-65 13-21 9-38 21-53 36-15 15-27 33-36 53-9 21-13 43-13 65 0 31 7 59 22 84 15 26 35 46 61 61 26 15 54 23 84 23 30 0 58-8 84-23 26-15 46-35 61-61 15-25 22-53 22-84z m110-2c0 27-5 52-16 75-11 23-25 43-42 59-18 16-38 28-61 37-23 9-47 14-72 14l-86 0c-34 0-65-8-93-23-28-16-50-38-67-66-17-28-25-60-25-96 0-32 8-63 25-90 17-28 39-50 67-67 29-16 60-24 93-24l86 0c24 0 48 5 72 15 23 9 43 22 61 38 17 16 31 36 42 58 11 22 16 46 16 70z m98 185l0-366c0-10-3-18-11-26-7-7-16-10-25-10l-586 0c-9 0-18 3-25 10-8 8-11 16-11 26l0 366c0 10 3 18 11 26 7 7 16 10 25 10l586 0c9 0 18-3 25-10 8-8 11-16 11-26z"/>
<glyph glyph-name="cc-discover" unicode="&#57357;" d="M16 290c0-10-3-18-10-24-6-5-14-7-25-7l-5 0 0 62 5 0c11 0 20-2 25-7 7-6 10-14 10-24z m508 19c0-10-6-15-19-15l-5 0 0 29 6 0c12 0 18-5 18-14z m-489-19c0 14-4 26-14 34-9 9-22 14-37 14l-27 0 0-95 27 0c14 0 26 3 34 10 12 10 17 22 17 37z m9-47l19 0 0 95-19 0z m91 28c0 8-2 14-5 18-4 4-12 8-22 12-6 2-9 4-11 6-2 1-3 3-3 6 0 3 1 6 4 8 2 2 5 3 9 3 6 0 11-3 16-8l9 13c-8 7-17 10-28 10-8 0-15-2-21-8-6-5-8-11-8-19 0-7 1-12 5-16 3-4 9-7 18-10 7-3 11-5 13-6 3-2 5-5 5-9 0-4-1-7-4-10-2-3-6-4-10-4-9 0-16 4-20 13l-12-12c8-12 19-18 33-18 9 0 17 3 23 9 6 6 9 13 9 22z m80-25l0 22c-7-7-15-11-22-11-10 0-17 3-23 9-6 7-9 14-9 24 0 9 3 17 9 23 6 7 13 10 22 10 8 0 16-4 23-11l0 22c-8 4-15 6-23 6-14 0-26-5-36-15-10-9-15-21-15-35 0-14 5-26 15-35 10-10 22-15 36-15 8 0 15 2 23 6z m352-173l0 151c-13-8-26-16-41-24-16-9-38-20-68-34-30-14-62-27-94-39-33-12-73-25-120-38-47-14-95-25-144-34l449 0c5 0 9 2 12 5 4 4 6 8 6 13z m-243 216c0 15-5 27-15 37-11 10-23 15-37 15-14 0-26-5-37-15-10-10-15-22-15-37 0-14 5-26 15-36 11-10 23-15 37-15 14 0 26 5 37 15 10 10 15 22 15 36z m43-49l41 98-20 0-26-64-25 64-20 0 40-98z m50 3l52 0 0 16-34 0 0 25 33 0 0 16-33 0 0 21 34 0 0 17-52 0z m111 0l23 0-30 40c15 3 22 12 22 26 0 9-3 16-9 21-6 5-14 8-25 8l-28 0 0-95 19 0 0 38 3 0z m57 194l0-362c0-11-4-20-11-27-7-8-16-11-27-11l-582 0c-11 0-20 3-27 11-7 7-11 16-11 27l0 362c0 11 4 20 11 27 7 8 16 11 27 11l582 0c11 0 20-3 27-11 7-7 11-16 11-27z"/>
<glyph glyph-name="cc-jcb" unicode="&#57358;" d="M484 227c0-5-1-9-4-13-3-3-7-6-11-7-2 0-3 0-5 0l-44 0 0 40 44 0c2 0 3 0 5-1 4-1 8-3 11-6 3-4 4-8 4-13z m-5 61c0-5-1-9-4-12-3-4-7-6-11-6-1 0-2-1-4-1l-40 0 0 37 40 0c0 0 1 0 2-1 1-1 2-2 2-2 4 0 8-2 11-6 3-3 4-7 4-12z m-344-47l0 88-65 0 0-88c0-11-4-20-11-27-7-7-17-11-30-11-21 0-43 6-66 17l0-32c11-3 22-5 35-6 13-2 23-3 31-3l12 0c63 0 94 21 94 62z m204-53l0 33c-19-10-38-16-57-17-21-2-37 2-49 11-11 10-17 23-17 41 0 18 6 31 17 41 12 9 28 13 49 11 19-1 38-7 57-16l0 32c-9 2-19 4-29 5-10 2-17 3-23 3l-8 1c-24 1-45-1-62-4-17-4-31-10-40-18-9-7-16-16-20-25-5-9-7-19-7-30 0-11 2-21 7-30 4-9 11-18 20-25 9-8 23-14 40-18 17-3 38-5 62-4 20 1 39 4 60 9z m210 33c0 10-5 19-13 25-8 7-18 11-31 12l0 1c11 1 19 5 26 11 6 7 9 14 9 23 0 11-4 19-12 25-8 7-18 10-31 11 0 0-1 0-3 0-2 0-3 0-4 0l-130 0 0-146 140 0c14 0 26 4 35 11 9 7 14 16 14 27z m36 218l0-366c0-10-3-18-11-26-7-7-16-10-25-10l-586 0c-9 0-18 3-25 10-8 8-11 16-11 26l0 366c0 10 3 18 11 26 7 7 16 10 25 10l586 0c9 0 18-3 25-10 8-8 11-16 11-26z"/>
<glyph glyph-name="cc-mastercard" unicode="&#57359;" d="M119 245l-4 0c-9 0-14-3-14-9 0-4 2-6 6-6 3 0 6 1 8 4 2 3 3 7 4 11z m112 11l18 0 0 1c0 0 0 1 0 1 0 1 0 2 0 2 0 1 0 2-1 3 0 0-1 1-1 2-1 0-1 1-2 1-1 0-2 1-4 1-5 0-8-4-10-11z m155-11l-4 0c-9 0-13-3-13-9 0-4 1-6 5-6 4 0 6 1 8 4 2 3 4 7 4 11z m91 8c0 8-3 12-9 12-3 0-6-2-9-6-2-4-3-9-3-15 0-8 3-12 8-12 4 0 7 2 9 6 3 4 4 9 4 15z m-413 40l25 0-13-75-16 0 9 58-20-58-11 0-1 57-10-57-15 0 13 75 23 0 0-46z m72-30c0-2 0-6-1-12-3-20-5-30-5-33l-13 0 0 7c-4-5-9-8-16-8-5 0-8 2-11 5-3 3-4 7-4 12 0 7 2 13 7 17 5 4 12 6 21 6 3 0 5 0 7 0 0 0 0 1-1 1 0 1 0 1 1 2 0 0 0 0 1 1 0 3-3 5-10 5-6 0-11-1-17-3 0 1 1 6 2 14 7 2 14 3 19 3 14 0 21-6 21-17z m45 16l-2-14c-5 1-9 1-12 1-5 0-8-2-8-5 0-1 1-3 1-3 1-1 3-2 7-3 7-4 11-10 11-18 0-13-8-20-25-20-6 0-12 1-16 2 0 0 0 5 2 14 5-2 10-2 14-2 6 0 9 1 9 5 0 1 0 2-1 3-1 1-3 2-6 4-8 4-12 9-12 17 0 13 8 20 24 20 5 0 10 0 14-1z m25 0l8 0-2-15-8 0c-1-3-1-7-2-11-1-5-2-8-2-11-1-3-1-5-1-5 0-3 2-5 6-5 1 0 3 0 4 1l-2-14c-4-1-8-2-12-2-8 0-12 5-12 14 0 2 0 7 2 16 0 3 3 17 7 41l16 0z m58-21c0-4-1-9-2-15l-32 0c0-4 1-7 3-9 3-2 6-3 11-3 6 0 11 1 17 4l-3-16c-6-1-11-2-16-2-18 0-27 9-27 27 0 11 2 19 7 26 6 7 12 10 20 10 7 0 12-2 16-6 4-4 6-9 6-16z m40 21c-3-4-5-10-7-17-4 0-7-2-8-7-2-5-5-17-8-37l-16 0 1 4c4 25 7 44 9 57l14 0-1-9c3 4 5 7 8 8 2 2 4 2 8 1z m53 12l-2-16c-6 3-11 4-15 4-6 0-10-3-14-8-4-5-6-12-6-20 0-6 1-10 4-14 2-3 6-4 11-4 4 0 8 1 14 3l-3-17c-6-1-10-2-15-2-8 0-15 3-20 9-5 6-8 14-8 23 0 14 4 25 11 33 6 9 15 13 26 13 5 0 10-1 17-4z m46-28c0-4 0-8-1-12-2-15-4-26-5-33l-13 0 1 7c-4-5-10-8-17-8-5 0-8 2-11 5-3 3-4 7-4 12 0 7 3 13 7 17 5 4 12 6 21 6 3 0 5 0 7 0 0 1 0 2 0 4 0 3-3 5-10 5-6 0-11-1-17-3 0 1 1 6 2 14 8 2 14 3 20 3 13 0 20-6 20-17z m41 16c-3-4-5-10-6-17-5 0-8-2-9-7-2-5-4-17-8-37l-16 0 1 4c4 20 7 39 9 57l14 0c0-2 0-5-1-9 3 4 6 7 8 8 2 2 5 2 8 1z m40 14l16 0-12-75-15 0 0 6c-4-5-9-7-14-7-6 0-11 2-15 7-3 5-5 11-5 18 0 10 3 19 8 27 5 7 11 11 18 11 6 0 11-3 16-9z m32-37c0 28-7 54-21 78-14 24-33 43-57 57-23 13-50 20-78 20-34 0-65-10-93-31 24-22 40-49 48-81l-14 0c-8 28-23 53-45 72-22-19-37-44-45-72l-14 0c8 32 24 59 48 81-28 21-59 31-93 31-28 0-55-7-78-20-24-14-43-33-57-57-14-24-21-50-21-78 0-28 7-54 21-78 14-24 33-43 57-57 23-13 50-20 78-20 34 0 65 10 93 31-22 21-38 46-47 75l15 0c8-26 23-48 43-66 20 18 35 40 43 66l15 0c-9-29-25-54-47-75 28-21 59-31 93-31 28 0 55 7 78 20 24 14 43 33 57 57 14 24 21 50 21 78z m69 183l0-366c0-10-3-18-11-26-7-7-16-10-25-10l-586 0c-9 0-18 3-25 10-8 8-11 16-11 26l0 366c0 10 3 18 11 26 7 7 16 10 25 10l586 0c9 0 18-3 25-10 8-8 11-16 11-26z"/>
<glyph glyph-name="cc-paypal" unicode="&#57360;" d="M140 253c0-7-3-13-8-17-4-5-10-7-17-7-6 0-10 1-14 4-3 3-5 7-5 13 0 7 3 13 7 18 5 4 11 7 18 7 5 0 10-2 13-5 4-3 6-7 6-13z m224 43c0-8-2-14-6-17-4-2-11-4-19-4l-9 0 5 30c0 3 1 4 3 4l5 0c5 0 8-1 10-1 3 0 5-2 8-4 2-2 3-4 3-8z m100-43c0-7-2-13-7-17-5-5-11-7-18-7-5 0-10 1-13 4-3 3-5 7-5 13 0 7 2 13 7 18 5 4 11 7 18 7 5 0 9-2 13-5 4-3 5-7 5-13z m-391 49c0 11-3 19-11 24-7 5-16 8-28 8l-46 0c-4 0-6-2-6-5l-19-117c0-1 1-2 1-3 1-1 2-2 3-2l22 0c4 0 6 2 6 6l5 31c0 2 1 3 2 4 1 1 3 2 5 2 1 0 3 0 4 0 2 0 4 0 6 0 2 0 3 0 4 0 16 0 29 4 38 14 10 9 14 22 14 38z m89-89l11 74c1 2 0 3 0 4-1 1-2 1-3 1l-22 0c-3 0-4-3-5-9-5 7-14 11-27 11-14 0-25-5-35-15-10-11-14-23-14-37 0-11 3-20 9-27 7-6 16-10 27-10 5 0 11 2 16 4 6 2 11 5 14 9-1-2-1-4-1-6 0-3 1-5 4-5l19 0c4 0 6 2 7 6z m127 75c0 1 0 2-1 3 0 1-1 1-2 1l-22 0c-2 0-4-1-5-3l-31-44-12 42c-1 3-3 5-7 5l-21 0c-1 0-2 0-3-1 0-1-1-2-1-3 0 0 2-6 6-17 4-11 8-22 12-35 4-13 6-19 7-20-16-21-24-33-24-34 0-3 1-4 4-4l22 0c2 0 4 1 5 3l73 105c0 0 0 1 0 2z m109 14c0 11-4 19-11 24-7 5-17 8-29 8l-45 0c-4 0-6-2-6-5l-19-117c0-1 0-2 1-3 1-1 2-2 3-2l23 0c2 0 4 2 5 4l5 33c0 2 1 3 2 4 1 1 2 2 4 2 2 0 3 0 5 0 2 0 3 0 5 0 3 0 4 0 4 0 17 0 30 4 39 14 9 9 14 22 14 38z m88-89l12 74c0 2 0 3-1 4-1 1-2 1-3 1l-21 0c-3 0-5-3-5-9-5 7-14 11-27 11-14 0-26-5-35-15-10-11-15-23-15-37 0-11 3-20 10-27 7-6 15-10 26-10 6 0 12 2 17 4 6 2 10 5 14 9 0 0 0-1-1-3 0-1 0-2 0-3 0-3 1-5 3-5l20 0c4 0 6 2 6 6z m63 117l0 0c0 3-2 4-4 4l-21 0c-2 0-4-1-4-3l-19-119 0-1c0-1 1-1 1-2 1-1 2-2 3-2l19 0c4 0 6 2 6 6z m-510-39c-1-6-4-11-8-13-4-2-9-3-17-3l-9 0 5 30c0 3 1 4 3 4l6 0c7 0 13-2 16-4 4-2 5-7 4-14z m546 148l0-366c0-10-3-18-11-26-7-7-16-10-25-10l-586 0c-9 0-18 3-25 10-8 8-11 16-11 26l0 366c0 10 3 18 11 26 7 7 16 10 25 10l586 0c9 0 18-3 25-10 8-8 11-16 11-26z"/>
<glyph glyph-name="cc-stripe" unicode="&#57361;" d="M383 254c0-13-2-23-6-30-3-7-8-10-15-10-4 0-8 1-11 2l0 64c5 6 11 9 16 9 11 0 16-12 16-35z m125 10l-31 0c1 19 6 28 16 28 10 0 15-9 15-28z m-445-38c0 11-3 20-10 26-6 6-15 12-28 16-7 3-12 5-15 7-3 2-5 5-5 7 0 5 4 8 11 8 11 0 23-3 35-10l6 32c-13 6-27 9-43 9-15 0-26-3-35-10-9-8-14-18-14-32 0-11 3-19 9-25 7-7 16-12 29-17 7-2 12-5 15-7 3-2 5-5 5-8 0-6-5-9-14-9-5 0-12 2-20 4-8 2-15 5-20 9l-6-33c14-7 30-11 48-11 16 0 28 3 37 10 10 8 15 19 15 34z m84 61l6 32-28 0 0 38-37-6-5-32-13-2-5-30 18 0 0-62c0-16 4-28 12-35 8-5 18-8 32-8 6 0 14 1 23 3l0 34c-6-2-11-2-13-2-8 0-12 4-12 14l0 56z m90-7l0 40c-2 0-5 1-8 1-6 0-11-2-15-5-5-3-8-7-10-13l-3 16-37 0 0-135 43 0 0 88c5 6 12 9 23 9 3 0 6-1 7-1z m11-96l43 0 0 135-43 0z m178 71c0 24-5 41-13 52-8 9-18 14-32 14-12 0-23-5-33-16l-3 14-37 0 0-184 43 7 0 43c6-2 13-3 19-3 16 0 29 5 38 16 12 12 18 31 18 57z m-134 100c0 6-2 11-7 16-4 4-9 6-16 6-6 0-11-2-16-6-4-5-6-10-6-16 0-6 2-12 6-16 5-5 10-7 16-7 7 0 12 2 16 7 5 4 7 10 7 16z m257-102c0 21-5 38-14 50-10 12-23 18-41 18-19 0-33-6-44-18-10-13-15-30-15-52 0-24 6-42 18-54 10-10 25-15 46-15 19 0 34 4 45 11l-4 30c-11-6-23-9-37-9-8 0-14 2-18 5-4 4-7 10-8 19l71 0c0 3 1 8 1 15z m36 186l0-366c0-10-3-18-11-26-7-7-16-10-25-10l-586 0c-9 0-18 3-25 10-8 8-11 16-11 26l0 366c0 10 3 18 11 26 7 7 16 10 25 10l586 0c9 0 18-3 25-10 8-8 11-16 11-26z"/>
<glyph glyph-name="cc-visa" unicode="&#57362;" d="M491 229l-39 0c2 7 9 24 19 51l0 3c1 2 2 4 3 7 1 3 2 6 3 8l3-16z m-412 19l-17 84c-2 10-9 15-21 15l-77 0-1-3c60-15 98-47 116-96z m51 99l-47-125-4 26c-5 13-13 25-25 37-11 11-23 19-37 25l38-146 50 0 75 183z m39-183l48 0 30 183-48 0z m220 179c-13 5-27 8-43 8-23 0-42-6-57-17-15-12-23-26-23-44 0-19 14-36 42-50 9-4 15-8 19-11 3-4 5-8 5-12 0-5-3-10-8-13-6-3-13-4-20-4-16 0-31 3-45 9l-6 3-6-41c14-6 31-10 52-10 25 0 45 6 60 17 15 12 23 27 23 46 0 20-13 37-40 50-9 4-16 8-20 12-4 3-7 7-7 11 0 4 3 7 7 11 5 3 12 4 21 4 13 0 25-2 35-7l4-2z m121 4l-36 0c-13 0-21-5-25-15l-70-168 49 0 10 27 61 0c1-4 3-13 6-27l44 0z m75 92l0-366c0-10-3-18-11-26-7-7-16-10-25-10l-586 0c-9 0-18 3-25 10-8 8-11 16-11 26l0 366c0 10 3 18 11 26 7 7 16 10 25 10l586 0c9 0 18-3 25-10 8-8 11-16 11-26z"/>
<glyph glyph-name="certificate" unicode="&#57363;" d="M430 256l39-39c6-5 8-12 6-20-2-7-7-12-15-14l-54-14 15-53c3-8 1-14-5-20-6-6-12-8-20-5l-53 15-14-54c-2-8-7-13-14-15-3 0-5 0-6 0-6 0-11 2-14 6l-39 39-39-39c-5-6-12-8-20-6-7 2-12 7-14 15l-14 54-53-15c-8-3-14-1-20 5-6 6-8 12-5 20l15 53-54 14c-8 2-13 7-15 14-2 8 0 15 6 20l39 39-39 39c-6 5-8 12-6 20 2 7 7 12 15 14l54 14-15 53c-3 8-1 14 5 20 6 6 12 8 20 5l53-15 14 54c2 8 7 13 14 15 8 2 15 0 20-6l39-40 39 40c5 6 12 8 20 6 7-2 12-7 14-15l14-54 53 15c8 3 14 1 20-5 6-6 8-12 5-20l-15-53 54-14c8-2 13-7 15-14 2-8 0-15-6-20z"/>
<glyph glyph-name="chain-broken" unicode="&#57364;" d="M144 149l-73-73c-2-2-5-3-7-3-2 0-4 1-7 3-1 2-2 4-2 6 0 3 1 5 2 7l74 73c1 2 4 3 6 3 3 0 5-1 7-3 1-2 2-4 2-7 0-2-1-4-2-6z m48-12l0-91c0-3-1-5-3-7-1-2-3-2-6-2-3 0-5 0-7 2-1 2-2 4-2 7l0 91c0 3 1 5 2 7 2 1 4 2 7 2 3 0 5-1 6-2 2-2 3-4 3-7z m-64 64c0-3-1-5-3-6-1-2-3-3-6-3l-92 0c-2 0-4 1-6 3-2 1-3 3-3 6 0 3 1 5 3 7 2 1 4 2 6 2l92 0c3 0 5-1 6-2 2-2 3-4 3-7z m361-36c0-23-8-43-24-58l-42-42c-16-16-35-24-58-24-23 0-43 8-58 24l-96 96c-4 4-8 9-12 16l68 5 78-78c6-5 12-8 20-8 8 0 14 3 19 8l42 41c6 6 8 12 8 20 0 7-2 14-8 19l-78 79 5 68c7-4 12-8 16-12l96-96c16-17 24-36 24-58z m-176 206l-68-5-78 79c-6 5-12 8-20 8-7 0-14-3-19-8l-42-42c-6-5-8-12-8-19 0-8 2-14 8-19l78-79-5-68c-7 4-12 8-16 12l-96 96c-16 16-24 36-24 58 0 23 8 42 24 58l42 42c16 16 35 23 58 23 23 0 43-8 58-24l96-96c4-4 8-9 12-16z m181-24c0-2-1-4-3-6-2-2-4-3-6-3l-92 0c-3 0-5 1-6 3-2 2-3 4-3 6 0 3 1 5 3 7 1 2 3 3 6 3l92 0c2 0 4-1 6-3 2-2 3-4 3-7z m-156 156l0-92c0-2-1-4-2-6-2-2-4-3-7-3-3 0-5 1-6 3-2 2-3 4-3 6l0 92c0 3 1 5 3 6 1 2 3 3 6 3 3 0 5-1 7-3 1-1 2-3 2-6z m117-43l-74-73c-2-2-4-3-6-3-2 0-5 1-7 3-1 1-2 4-2 6 0 3 1 5 2 7l73 73c2 2 5 2 7 2 2 0 5 0 7-2 1-2 2-4 2-7 0-2-1-4-2-6z"/>
<glyph glyph-name="check" unicode="&#57365;" d="M477 350c0-7-2-14-8-19l-206-207-39-39c-6-5-12-8-20-8-7 0-14 3-19 8l-142 142c-6 6-8 12-8 20 0 7 2 14 8 19l38 39c6 5 12 8 20 8 7 0 14-3 19-8l84-84 188 188c5 5 12 8 19 8 8 0 14-3 20-8l38-39c6-6 8-12 8-20z"/>
<glyph glyph-name="check-circle" unicode="&#57366;" d="M403 302c0 6-1 10-5 13l-26 26c-3 4-8 6-13 6-5 0-9-2-12-6l-117-116-65 64c-3 4-7 6-12 6-5 0-10-2-13-6l-26-25c-4-4-5-8-5-13 0-6 1-10 5-13l103-104c4-3 8-5 13-5 5 0 10 2 13 5l155 155c4 4 5 8 5 13z m72-46c0-40-9-77-29-110-20-34-46-60-80-80-33-20-70-29-110-29-40 0-77 9-110 29-34 20-60 46-80 80-20 33-29 70-29 110 0 40 9 77 29 110 20 34 46 60 80 80 33 20 70 29 110 29 40 0 77-9 110-29 34-20 60-46 80-80 20-33 29-70 29-110z"/>
<glyph glyph-name="check-circle-o" unicode="&#57367;" d="M371 280l-120-121c-4-3-8-5-13-5-5 0-10 2-13 5l-84 84c-4 4-6 8-6 13 0 5 2 9 6 13l29 29c4 4 8 5 13 5 5 0 9-1 13-5l42-42 78 79c4 3 8 5 13 5 5 0 9-2 13-5l29-30c4-3 6-7 6-12 0-5-2-10-6-13z m40-24c0 28-7 54-20 78-14 24-33 43-57 57-24 13-50 20-78 20-28 0-54-7-78-20-24-14-43-33-57-57-13-24-20-50-20-78 0-28 7-54 20-78 14-24 33-43 57-57 24-13 50-20 78-20 28 0 54 7 78 20 24 14 43 33 57 57 13 24 20 50 20 78z m64 0c0-40-9-77-29-110-20-34-46-60-80-80-33-20-70-29-110-29-40 0-77 9-110 29-34 20-60 46-80 80-20 33-29 70-29 110 0 40 9 77 29 110 20 34 46 60 80 80 33 20 70 29 110 29 40 0 77-9 110-29 34-20 60-46 80-80 20-33 29-70 29-110z"/>
<glyph glyph-name="check-square" unicode="&#57368;" d="M232 141l176 175c3 4 5 8 5 13 0 5-2 9-5 13l-29 29c-4 4-8 6-13 6-5 0-10-2-13-6l-134-133-60 60c-3 4-8 5-13 5-5 0-9-1-13-5l-29-29c-3-4-5-8-5-13 0-5 2-9 5-13l103-102c3-4 7-6 12-6 5 0 10 2 13 6z m243 252l0-274c0-23-8-42-24-58-16-16-35-24-58-24l-274 0c-23 0-42 8-58 24-16 16-24 35-24 58l0 274c0 23 8 42 24 58 16 16 35 24 58 24l274 0c23 0 42-8 58-24 16-16 24-35 24-58z"/>
<glyph glyph-name="check-square-o" unicode="&#57369;" d="M421 246l0-91c0-22-8-42-25-58-16-16-35-24-58-24l-237 0c-23 0-42 8-59 24-16 16-24 36-24 58l0 238c0 23 8 42 24 58 17 16 36 24 59 24l237 0c12 0 23-2 34-7 3-1 4-3 5-6 0-4 0-6-3-9l-14-14c-2-1-4-2-6-2-1 0-2 0-3 0-4 1-9 2-13 2l-237 0c-13 0-24-5-33-14-9-9-13-19-13-32l0-238c0-12 4-23 13-32 9-9 20-13 33-13l237 0c13 0 24 4 33 13 9 9 13 20 13 32l0 73c0 2 1 5 3 6l18 19c2 1 4 2 6 2 2 0 3 0 4 0 4-2 6-5 6-9z m66 140l-233-233c-5-4-10-6-16-6-7 0-12 2-17 6l-122 123c-5 5-7 10-7 17 0 6 2 11 7 16l31 31c5 5 10 7 16 7 7 0 12-2 17-7l75-75 185 185c4 5 10 7 16 7 6 0 12-2 16-7l32-31c4-5 6-10 6-17 0-6-2-11-6-16z"/>
<glyph glyph-name="chevron-circle-down" unicode="&#57370;" d="M269 141l130 130c3 3 5 7 5 12 0 5-2 10-5 13l-30 29c-3 4-7 6-12 6-5 0-10-2-13-6l-88-87-88 87c-3 4-8 6-13 6-5 0-9-2-12-6l-30-29c-3-3-5-8-5-13 0-5 2-9 5-12l130-130c4-4 8-6 13-6 5 0 9 2 13 6z m206 115c0-40-9-77-29-110-20-34-46-60-80-80-33-20-70-29-110-29-40 0-77 9-110 29-34 20-60 46-80 80-20 33-29 70-29 110 0 40 9 77 29 110 20 34 46 60 80 80 33 20 70 29 110 29 40 0 77-9 110-29 34-20 60-46 80-80 20-33 29-70 29-110z"/>
<glyph glyph-name="chevron-circle-left" unicode="&#57371;" d="M296 113l29 30c4 3 6 7 6 12 0 5-2 10-6 13l-87 88 87 88c4 3 6 8 6 13 0 5-2 9-6 12l-29 30c-3 3-8 5-13 5-5 0-9-2-12-5l-130-130c-4-4-6-8-6-13 0-5 2-9 6-13l130-130c3-3 7-5 12-5 5 0 10 2 13 5z m179 143c0-40-9-77-29-110-20-34-46-60-80-80-33-20-70-29-110-29-40 0-77 9-110 29-34 20-60 46-80 80-20 33-29 70-29 110 0 40 9 77 29 110 20 34 46 60 80 80 33 20 70 29 110 29 40 0 77-9 110-29 34-20 60-46 80-80 20-33 29-70 29-110z"/>
<glyph glyph-name="chevron-circle-right" unicode="&#57372;" d="M241 113l130 130c4 4 6 8 6 13 0 5-2 9-6 13l-130 130c-3 3-7 5-12 5-5 0-10-2-13-5l-29-30c-4-3-6-7-6-12 0-5 2-10 6-13l87-88-87-88c-4-3-6-8-6-13 0-5 2-9 6-12l29-30c3-3 8-5 13-5 5 0 9 2 12 5z m234 143c0-40-9-77-29-110-20-34-46-60-80-80-33-20-70-29-110-29-40 0-77 9-110 29-34 20-60 46-80 80-20 33-29 70-29 110 0 40 9 77 29 110 20 34 46 60 80 80 33 20 70 29 110 29 40 0 77-9 110-29 34-20 60-46 80-80 20-33 29-70 29-110z"/>
<glyph glyph-name="chevron-circle-up" unicode="&#57373;" d="M369 187l30 29c3 3 5 8 5 13 0 5-2 9-5 12l-130 130c-4 4-8 6-13 6-5 0-9-2-13-6l-130-130c-3-3-5-7-5-12 0-5 2-10 5-13l30-29c3-4 7-6 12-6 5 0 10 2 13 6l88 87 88-87c3-4 8-6 13-6 5 0 9 2 12 6z m106 69c0-40-9-77-29-110-20-34-46-60-80-80-33-20-70-29-110-29-40 0-77 9-110 29-34 20-60 46-80 80-20 33-29 70-29 110 0 40 9 77 29 110 20 34 46 60 80 80 33 20 70 29 110 29 40 0 77-9 110-29 34-20 60-46 80-80 20-33 29-70 29-110z"/>
<glyph glyph-name="chevron-down" unicode="&#57374;" d="M481 281l-212-212c-4-3-8-5-13-5-5 0-9 2-13 5l-212 212c-3 4-5 8-5 13 0 5 2 10 5 13l48 47c3 4 7 6 12 6 5 0 10-2 13-6l152-151 152 151c3 4 8 6 13 6 5 0 9-2 12-6l48-47c3-3 5-8 5-13 0-5-2-9-5-13z"/>
<glyph glyph-name="chevron-left" unicode="&#57375;" d="M408 426l-152-152 152-151c3-4 5-8 5-13 0-5-2-10-5-13l-48-48c-3-3-8-5-13-5-5 0-9 2-12 5l-212 212c-4 4-6 8-6 13 0 5 2 10 6 13l212 212c3 4 7 6 12 6 5 0 10-2 13-6l48-47c3-4 5-8 5-13 0-5-2-9-5-13z"/>
<glyph glyph-name="chevron-right" unicode="&#57376;" d="M389 261l-212-212c-3-3-7-5-12-5-5 0-10 2-13 5l-48 48c-3 3-5 8-5 13 0 5 2 9 5 13l152 151-152 152c-3 4-5 8-5 13 0 5 2 9 5 13l48 47c3 4 8 6 13 6 5 0 9-2 12-6l212-212c4-3 6-8 6-13 0-5-2-9-6-13z"/>
<glyph glyph-name="chevron-up" unicode="&#57377;" d="M481 132l-48-47c-3-4-7-6-12-6-5 0-10 2-13 6l-152 151-152-151c-3-4-8-6-13-6-5 0-9 2-12 6l-48 47c-3 3-5 8-5 13 0 5 2 9 5 13l212 211c4 4 8 6 13 6 5 0 9-2 13-6l212-211c3-4 5-8 5-13 0-5-2-10-5-13z"/>
<glyph glyph-name="child" unicode="&#57378;" d="M413 355l-84-83 0-235c0-9-3-17-9-23-7-6-14-9-23-9-9 0-16 3-22 9-7 6-10 14-10 23l0 109-18 0 0-109c0-9-3-17-10-23-6-6-13-9-22-9-9 0-16 3-23 9-6 6-9 14-9 23l0 235-84 83c-5 6-8 12-8 20 0 7 3 14 8 19 6 6 12 8 20 8 7 0 14-2 19-8l65-65 106 0 65 65c5 6 12 8 19 8 8 0 14-2 20-8 5-5 8-12 8-19 0-8-3-14-8-20z m-93 47c0-17-6-33-19-45-12-12-27-19-45-19-18 0-33 7-45 19-13 12-19 28-19 45 0 18 6 33 19 46 12 12 27 18 45 18 18 0 33-6 45-18 13-13 19-28 19-46z"/>
<glyph glyph-name="circle" unicode="&#57380;" d="M475 256c0-40-9-77-29-110-20-34-46-60-80-80-33-20-70-29-110-29-40 0-77 9-110 29-34 20-60 46-80 80-20 33-29 70-29 110 0 40 9 77 29 110 20 34 46 60 80 80 33 20 70 29 110 29 40 0 77-9 110-29 34-20 60-46 80-80 20-33 29-70 29-110z"/>
<glyph glyph-name="circle-o" unicode="&#57381;" d="M256 411c-28 0-54-7-78-20-24-14-43-33-57-57-13-24-20-50-20-78 0-28 7-54 20-78 14-24 33-43 57-57 24-13 50-20 78-20 28 0 54 7 78 20 24 14 43 33 57 57 13 24 20 50 20 78 0 28-7 54-20 78-14 24-33 43-57 57-24 13-50 20-78 20z m219-155c0-40-9-77-29-110-20-34-46-60-80-80-33-20-70-29-110-29-40 0-77 9-110 29-34 20-60 46-80 80-20 33-29 70-29 110 0 40 9 77 29 110 20 34 46 60 80 80 33 20 70 29 110 29 40 0 77-9 110-29 34-20 60-46 80-80 20-33 29-70 29-110z"/>
<glyph glyph-name="circle-o-notch" unicode="&#57382;" d="M512 256c0-35-7-68-20-99-14-32-32-59-55-82-23-23-50-41-82-55-31-13-64-20-99-20-35 0-68 7-99 20-32 14-59 32-82 55-23 23-41 50-55 82-13 31-20 64-20 99 0 42 10 82 29 118 19 37 45 67 79 91 33 24 70 39 111 44l0-74c-42-8-77-29-104-63-28-34-42-72-42-116 0-25 5-48 15-71 9-23 22-42 39-58 16-17 35-30 58-39 23-10 46-15 71-15 25 0 48 5 71 15 23 9 42 22 58 39 17 16 30 35 39 58 10 23 15 46 15 71 0 44-14 82-42 116-27 34-62 55-104 63l0 74c41-5 78-20 111-44 34-24 60-54 79-91 19-36 29-76 29-118z"/>
<glyph glyph-name="circle-thin" unicode="&#57383;" d="M256 439c-25 0-48-5-71-15-23-9-42-22-58-39-17-16-30-35-39-58-10-23-15-46-15-71 0-25 5-48 15-71 9-23 22-42 39-58 16-17 35-30 58-39 23-10 46-15 71-15 25 0 48 5 71 15 23 9 42 22 58 39 17 16 30 35 39 58 10 23 15 46 15 71 0 25-5 48-15 71-9 23-22 42-39 58-16 17-35 30-58 39-23 10-46 15-71 15z m219-183c0-40-9-77-29-110-20-34-46-60-80-80-33-20-70-29-110-29-40 0-77 9-110 29-34 20-60 46-80 80-20 33-29 70-29 110 0 40 9 77 29 110 20 34 46 60 80 80 33 20 70 29 110 29 40 0 77-9 110-29 34-20 60-46 80-80 20-33 29-70 29-110z"/>
<glyph glyph-name="clipboard" unicode="&#57384;" d="M219 37l256 0 0 182-118 0c-8 0-15 3-20 8-5 6-8 12-8 20l0 119-110 0z m74 411l0 18c0 3-1 5-3 7-2 2-4 2-7 2l-201 0c-2 0-4 0-6-2-2-2-3-4-3-7l0-18c0-2 1-5 3-6 2-2 4-3 6-3l201 0c3 0 5 1 7 3 2 1 3 4 3 6z m73-192l85 0-85 85z m146-37l0-192c0-7-3-14-8-19-5-5-12-8-19-8l-275 0c-7 0-14 3-19 8-5 5-8 12-8 19l0 46-156 0c-7 0-14 3-19 8-5 5-8 12-8 20l0 384c0 7 3 14 8 19 5 5 12 8 19 8l311 0c8 0 14-3 20-8 5-5 8-12 8-19l0-94c4-3 7-5 10-8l117-117c5-5 9-12 13-21 4-10 6-18 6-26z"/>
<glyph glyph-name="clock-o" unicode="&#57385;" d="M293 357l0-128c0-3-1-5-3-7-2-2-4-3-7-3l-91 0c-3 0-5 1-7 3-1 2-2 4-2 7l0 18c0 3 1 5 2 6 2 2 4 3 7 3l64 0 0 101c0 2 1 4 3 6 1 2 3 3 6 3l18 0c3 0 5-1 7-3 2-2 3-4 3-6z m118-101c0 28-7 54-20 78-14 24-33 43-57 57-24 13-50 20-78 20-28 0-54-7-78-20-24-14-43-33-57-57-13-24-20-50-20-78 0-28 7-54 20-78 14-24 33-43 57-57 24-13 50-20 78-20 28 0 54 7 78 20 24 14 43 33 57 57 13 24 20 50 20 78z m64 0c0-40-9-77-29-110-20-34-46-60-80-80-33-20-70-29-110-29-40 0-77 9-110 29-34 20-60 46-80 80-20 33-29 70-29 110 0 40 9 77 29 110 20 34 46 60 80 80 33 20 70 29 110 29 40 0 77-9 110-29 34-20 60-46 80-80 20-33 29-70 29-110z"/>
<glyph glyph-name="clone" unicode="&#57386;" d="M475 46l0 311c0 2 0 4-2 6-2 2-4 3-7 3l-311 0c-2 0-4-1-6-3-2-2-3-4-3-6l0-311c0-3 1-5 3-7 2-2 4-2 6-2l311 0c3 0 5 0 7 2 2 2 2 4 2 7z m37 311l0-311c0-13-4-24-13-33-9-9-20-13-33-13l-311 0c-12 0-23 4-32 13-9 9-13 20-13 33l0 311c0 12 4 23 13 32 9 9 20 13 32 13l311 0c13 0 24-4 33-13 9-9 13-20 13-32z m-110 109l0-45-36 0 0 45c0 3-1 5-3 7-2 2-4 2-6 2l-311 0c-3 0-5 0-7-2-2-2-2-4-2-7l0-311c0-2 0-4 2-6 2-2 4-3 7-3l45 0 0-36-45 0c-13 0-24 4-33 13-9 9-13 20-13 32l0 311c0 13 4 24 13 33 9 9 20 13 33 13l311 0c12 0 23-4 32-13 9-9 13-20 13-33z"/>
<glyph glyph-name="cloud" unicode="&#57387;" d="M530 183c0-30-10-56-32-78-21-21-47-32-77-32l-311 0c-36 0-66 13-91 38-25 25-37 55-37 90 0 25 6 48 20 69 14 21 31 37 53 47 0 5 0 9 0 12 0 41 14 75 43 104 28 28 63 42 103 42 30 0 58-8 82-25 24-16 42-38 54-65 13 11 29 17 47 17 20 0 37-7 52-21 14-14 21-32 21-52 0-14-4-27-12-39 25-6 45-19 61-39 16-20 24-42 24-68z"/>
<glyph glyph-name="cloud-download" unicode="&#57388;" d="M347 247c0 3 0 5-2 6-2 2-4 3-7 3l-64 0 0 101c0 2-1 4-2 6-2 2-4 3-7 3l-55 0c-2 0-4-1-6-3-2-2-3-4-3-6l0-101-64 0c-2 0-4-1-6-3-2-2-3-4-3-6 0-3 1-5 3-7l100-100c2-2 4-3 7-3 2 0 5 1 6 3l101 100c1 2 2 5 2 7z m183-64c0-30-10-56-32-78-21-21-47-32-77-32l-311 0c-36 0-66 13-91 38-25 25-37 55-37 90 0 25 6 48 20 69 13 21 31 36 53 47 0 6 0 10 0 12 0 41 14 75 43 104 28 28 63 42 103 42 30 0 57-8 82-24 24-17 42-39 54-66 13 11 29 17 47 17 20 0 37-7 52-21 14-14 21-32 21-52 0-14-4-27-12-39 25-6 46-19 61-39 16-20 24-43 24-68z"/>
<glyph glyph-name="cloud-upload" unicode="&#57389;" d="M347 265c0 3 0 5-2 7l-101 100c-1 2-4 3-6 3-3 0-5-1-7-3l-100-100c-2-2-3-5-3-7 0-3 1-5 3-6 1-2 3-3 6-3l64 0 0-101c0-2 1-4 3-6 2-2 4-3 6-3l55 0c3 0 5 1 7 3 1 2 2 4 2 6l0 101 64 0c3 0 5 1 7 3 2 2 2 4 2 6z m183-82c0-30-10-56-32-78-21-21-47-32-77-32l-311 0c-36 0-66 13-91 38-25 25-37 55-37 90 0 25 6 48 20 69 13 21 31 36 53 47 0 6 0 10 0 12 0 41 14 75 43 104 28 28 63 42 103 42 30 0 57-8 82-24 24-17 42-39 54-66 13 11 29 17 47 17 20 0 37-7 52-21 14-14 21-32 21-52 0-14-4-27-12-39 25-6 46-19 61-39 16-20 24-43 24-68z"/>
<glyph glyph-name="code" unicode="&#57390;" d="M158 112l-14-14c-2-2-4-3-7-3-2 0-5 1-6 3l-134 133c-1 2-2 4-2 7 0 2 1 4 2 6l134 133c1 2 4 3 6 3 3 0 5-1 7-3l14-14c2-2 3-4 3-6 0-3-1-5-3-7l-112-112 112-113c2-1 3-4 3-6 0-3-1-5-3-7z m169 305l-107-369c0-2-2-4-4-5-2-2-5-2-7-1l-18 5c-2 1-4 2-5 4-1 2-2 5-1 7l107 369c0 3 2 4 4 6 2 1 5 1 7 0l18-4c2-1 4-3 5-5 1-2 2-4 1-7z m188-186l-134-133c-1-2-4-3-6-3-3 0-5 1-7 3l-14 14c-2 2-3 4-3 7 0 2 1 5 3 6l112 113-112 112c-2 2-3 4-3 7 0 2 1 4 3 6l14 14c2 2 4 3 7 3 2 0 5-1 6-3l134-133c1-2 2-4 2-6 0-3-1-5-2-7z"/>
<glyph glyph-name="code-fork" unicode="&#57391;" d="M192 91c0 8-3 15-8 20-5 5-12 8-19 8-8 0-15-3-20-8-5-5-8-12-8-20 0-7 3-14 8-19 5-5 12-8 20-8 7 0 14 3 19 8 5 5 8 12 8 19z m0 330c0 7-3 14-8 19-5 5-12 8-19 8-8 0-15-3-20-8-5-5-8-12-8-19 0-8 3-15 8-20 5-5 12-8 20-8 7 0 14 3 19 8 5 5 8 12 8 20z m183-37c0 8-3 14-8 19-5 6-12 8-20 8-7 0-14-2-19-8-5-5-8-11-8-19 0-8 3-14 8-19 5-6 12-8 19-8 8 0 15 2 20 8 5 5 8 11 8 19z m27 0c0-10-2-19-7-28-5-8-12-15-20-19-1-55-22-95-65-119-13-7-32-15-58-23-24-7-40-14-48-20-8-6-12-16-12-29l0-7c8-5 15-12 20-20 5-8 7-18 7-28 0-15-5-28-16-38-10-11-23-16-38-16-16 0-29 5-39 16-11 10-16 23-16 38 0 10 2 20 7 28 5 8 12 15 20 20l0 234c-8 5-15 12-20 20-5 8-7 18-7 28 0 15 5 28 16 38 10 11 23 16 39 16 15 0 28-5 38-16 11-10 16-23 16-38 0-10-2-20-7-28-5-8-12-15-20-20l0-142c10 5 25 11 44 16 10 4 19 6 25 9 6 2 13 5 20 9 7 3 13 7 17 11 4 4 8 9 12 15 3 5 6 12 8 19 1 8 2 17 2 27-8 4-15 11-20 19-5 9-7 18-7 28 0 15 5 28 16 39 10 11 23 16 38 16 16 0 29-5 39-16 11-11 16-24 16-39z"/>
<glyph glyph-name="coffee" unicode="&#57393;" d="M457 329c0 15-5 28-16 39-11 11-23 16-39 16l-18 0 0-110 18 0c16 0 28 6 39 16 11 11 16 24 16 39z m-475-219l512 0c0-20-7-38-22-52-14-14-31-21-51-21l-366 0c-20 0-38 7-52 21-14 14-21 32-21 52z m530 219c0-30-11-56-32-77-22-22-47-33-78-33l-18 0 0-9c0-17-6-32-19-45-12-12-27-19-45-19l-201 0c-18 0-33 7-45 19-13 13-19 28-19 45l0 211c0 5 2 9 5 12 4 4 8 6 13 6l329 0c31 0 56-11 78-32 21-22 32-48 32-78z"/>
<glyph glyph-name="cog" unicode="&#57394;" d="M329 256c0 20-7 37-21 52-15 14-32 21-52 21-20 0-37-7-52-21-14-15-21-32-21-52 0-20 7-37 21-52 15-14 32-21 52-21 20 0 37 7 52 21 14 15 21 32 21 52z m146 31l0-63c0-3 0-5-2-7-1-2-3-3-6-4l-52-8c-4-10-8-19-12-26 7-9 17-22 31-39 2-2 3-5 3-7 0-3-1-5-3-7-5-7-14-17-28-31-14-13-23-20-27-20-2 0-5 1-7 3l-40 31c-8-5-17-8-26-11-3-26-6-44-8-53-1-6-5-8-10-8l-64 0c-2 0-5 0-7 2-2 2-3 4-3 6l-8 53c-9 3-18 6-26 10l-40-30c-2-2-4-3-7-3-3 0-5 1-7 3-24 22-40 38-47 48-2 2-2 4-2 7 0 2 0 4 2 6 3 4 8 11 14 19 7 9 12 16 16 21-5 9-9 19-12 28l-52 8c-3 0-5 1-6 3-2 2-2 4-2 7l0 63c0 3 0 5 2 7 1 2 3 3 5 4l53 8c3 8 7 17 12 26-8 11-18 24-31 39-2 3-3 5-3 7 0 2 1 4 3 7 5 7 14 17 28 30 14 14 23 21 27 21 2 0 5-1 7-3l40-31c8 5 17 8 26 11 3 26 6 44 8 53 1 6 5 8 10 8l64 0c2 0 5 0 7-2 2-2 3-4 3-6l8-53c9-3 18-6 26-10l40 30c2 2 4 3 7 3 3 0 5-1 7-3 25-23 41-39 47-49 2-1 2-3 2-6 0-2 0-4-2-6-3-4-8-11-14-19-7-9-12-16-16-21 5-9 9-18 12-28l52-8c3 0 5-1 6-3 2-2 2-4 2-7z"/>
<glyph glyph-name="cogs" unicode="&#57395;" d="M238 256c0 20-7 37-22 52-14 14-31 21-51 21-21 0-38-7-52-21-14-15-22-32-22-52 0-20 8-37 22-52 14-14 31-21 52-21 20 0 37 7 51 21 15 15 22 32 22 52z m219-146c0 10-3 18-11 25-7 8-16 11-25 11-10 0-19-3-26-11-7-7-11-15-11-25 0-10 4-19 11-26 7-7 15-11 26-11 10 0 18 4 25 11 8 7 11 16 11 26z m0 292c0 10-3 19-11 26-7 7-16 11-25 11-10 0-19-4-26-11-7-7-11-16-11-26 0-10 4-18 11-26 7-7 15-10 26-10 10 0 18 3 25 10 8 8 11 16 11 26z m-110-120l0-53c0-2 0-4-2-5-1-2-2-3-4-3l-44-7c-3-7-6-14-10-22 7-9 15-20 26-33 1-2 2-4 2-6 0-2-1-4-2-5-4-6-12-14-23-26-12-11-19-17-23-17-2 0-4 1-6 2l-33 26c-7-3-14-6-22-9-2-20-4-35-6-44-2-5-4-7-9-7l-53 0c-2 0-4 1-6 2-1 2-2 3-3 5l-6 44c-7 2-14 5-22 9l-33-26c-2-1-4-2-6-2-2 0-4 1-6 3-27 25-41 40-41 45 0 2 1 4 2 6 2 3 6 8 12 15 5 7 10 13 13 17-4 9-8 17-10 24l-43 7c-2 0-4 1-5 2-2 2-2 4-2 6l0 53c0 2 0 4 2 5 1 2 3 3 4 3l45 7c2 7 5 14 9 22-7 9-15 20-26 33-1 2-2 4-2 6 0 2 1 4 2 5 4 6 12 14 23 26 12 11 19 17 23 17 2 0 4-1 6-2l33-26c6 3 14 6 22 9 2 21 4 35 6 44 2 5 5 7 9 7l53 0c2 0 4-1 6-2 2-2 3-3 3-5l6-44c7-2 14-5 22-9l33 26c2 1 4 2 6 2 2 0 4-1 6-3 28-25 41-40 41-45 0-2 0-4-2-6-2-3-6-8-12-15-5-8-10-13-13-17 5-10 8-17 10-24l44-6c1-1 3-2 4-3 2-2 2-4 2-6z m183-152l0-40c0-3-14-6-42-9-3-5-5-10-9-15 10-22 15-35 15-39 0-1-1-2-1-2-24-14-35-21-36-21-1 0-6 5-13 14-7 9-12 15-15 19-4 0-7 0-8 0-2 0-5 0-9 0-3-4-8-10-15-19-7-9-11-14-13-14 0 0-12 7-35 21-1 0-2 1-2 2 0 4 5 17 15 39-3 5-6 10-9 15-28 3-42 6-42 9l0 40c0 3 14 6 42 9 3 5 6 10 9 14-10 22-15 35-15 40 0 1 1 1 2 2 0 0 4 2 10 6 5 3 11 6 16 9 6 3 9 5 9 5 2 0 6-5 13-13 7-9 12-16 15-20 4 1 7 1 9 1 1 0 4 0 8-1 10 14 19 24 26 32l2 1c1 0 13-7 36-20 0-1 1-1 1-2 0-5-5-18-15-40 3-4 6-9 9-14 28-3 42-6 42-9z m0 292l0-40c0-3-14-6-42-9-3-5-5-10-9-14 10-22 15-35 15-40 0-1-1-1-1-2-24-13-35-20-36-20-1 0-6 4-13 13-7 9-12 16-15 20-4-1-7-1-8-1-2 0-5 0-9 1-3-4-8-11-15-20-7-9-11-13-13-13 0 0-12 7-35 20-1 1-2 1-2 2 0 5 5 18 15 40-3 4-6 9-9 14-28 3-42 6-42 9l0 40c0 3 14 6 42 9 3 6 6 11 9 15-10 22-15 35-15 39 0 1 1 2 2 2 0 1 4 3 10 6 5 4 11 7 16 10 6 3 9 4 9 4 2 0 6-4 13-13 7-9 12-15 15-19 4 0 7 0 9 0 1 0 4 0 8 0 10 13 19 24 26 32l2 0c1 0 13-6 36-20 0 0 1-1 1-2 0-4-5-17-15-39 3-4 6-9 9-15 28-3 42-6 42-9z"/>
<glyph glyph-name="columns" unicode="&#57396;" d="M64 73l174 0 0 329-183 0 0-320c0-2 1-4 3-6 1-2 4-3 6-3z m393 9l0 320-183 0 0-329 174 0c2 0 5 1 6 3 2 2 3 4 3 6z m37 348l0-348c0-12-5-23-14-32-9-9-19-13-32-13l-384 0c-13 0-23 4-32 13-9 9-14 20-14 32l0 348c0 12 5 23 14 32 9 9 19 13 32 13l384 0c13 0 23-4 32-13 9-9 14-20 14-32z"/>
<glyph glyph-name="comment" unicode="&#57397;" d="M512 256c0-33-11-64-34-92-23-28-54-50-93-66-40-17-83-25-129-25-13 0-27 1-41 2-38-33-82-56-132-69-9-2-20-4-32-6-4 0-7 0-9 3-3 2-4 4-5 8l0 0c-1 1-1 2 0 4 0 1 0 2 0 2 0 1 1 2 2 3l1 3 2 2 3 3c1 1 4 5 8 10 5 5 8 8 10 10 2 3 5 6 9 12 4 5 7 10 9 14 3 5 5 10 8 17 3 7 5 14 8 22-30 17-54 38-71 63-17 25-26 51-26 80 0 25 7 48 20 71 14 23 32 42 55 58 23 17 50 30 82 39 31 10 64 15 99 15 46 0 89-8 129-25 39-16 70-38 93-66 23-28 34-59 34-92z"/>
<glyph glyph-name="comment-o" unicode="&#57398;" d="M256 402c-39 0-75-6-109-20-34-13-61-31-81-53-19-23-29-47-29-73 0-21 6-42 20-61 14-19 33-36 58-50l24-14-7-28c-5-17-12-34-20-49 29 12 55 28 78 49l13 11 16-2c13-2 25-2 37-2 39 0 75 6 109 20 34 13 61 31 81 53 19 23 29 47 29 73 0 26-10 50-29 73-20 22-47 40-81 53-34 14-70 20-109 20z m256-146c0-33-11-64-34-92-23-28-54-50-93-66-40-17-83-25-129-25-13 0-27 1-41 2-38-33-82-56-132-69-9-2-20-4-32-6l-2 0c-3 0-5 1-8 3-2 2-3 5-4 8l0 0c-1 1-1 2 0 4 0 1 0 2 0 2 0 1 1 2 2 3l1 3 2 2 3 3c1 1 4 5 8 10 5 5 8 8 10 10 2 3 5 6 9 12 4 5 7 10 9 14 3 5 5 10 8 17 3 7 5 14 8 22-30 17-54 38-71 63-17 25-26 51-26 80 0 33 11 64 34 92 23 28 54 50 93 66 40 17 83 25 129 25 46 0 89-8 129-25 39-16 70-38 93-66 23-28 34-59 34-92z"/>
<glyph glyph-name="commenting" unicode="&#57399;" d="M183 256c0 10-4 19-11 26-7 7-16 11-26 11-10 0-18-4-26-11-7-7-10-16-10-26 0-10 3-19 10-26 8-7 16-11 26-11 10 0 19 4 26 11 7 7 11 16 11 26z m110 0c0 10-4 19-11 26-7 7-16 11-26 11-10 0-19-4-26-11-7-7-11-16-11-26 0-10 4-19 11-26 7-7 16-11 26-11 10 0 19 4 26 11 7 7 11 16 11 26z m109 0c0 10-3 19-10 26-8 7-16 11-26 11-10 0-19-4-26-11-7-7-11-16-11-26 0-10 4-19 11-26 7-7 16-11 26-11 10 0 18 4 26 11 7 7 10 16 10 26z m110 0c0-33-11-64-34-92-23-28-54-50-93-66-40-17-83-25-129-25-21 0-41 2-60 5-33-33-75-54-125-65-9-2-18-3-24-4-2 0-5 1-6 2-2 1-4 3-4 5-1 3 1 6 6 11 1 1 3 3 6 6 4 3 6 5 8 6 1 2 3 4 6 8 3 3 6 6 7 9 2 2 4 6 6 10 2 5 4 9 6 14 1 5 2 10 4 16 1 7 2 14 3 21-27 17-49 38-65 62-16 24-24 50-24 77 0 33 11 64 34 92 23 28 54 50 93 66 40 17 83 25 129 25 46 0 89-8 129-25 39-16 70-38 93-66 23-28 34-59 34-92z"/>
<glyph glyph-name="commenting-o" unicode="&#57400;" d="M183 256c0-10-4-19-11-26-7-7-16-11-26-11-10 0-18 4-26 11-7 7-10 16-10 26 0 10 3 19 10 26 8 7 16 11 26 11 10 0 19-4 26-11 7-7 11-16 11-26z m110 0c0-10-4-19-11-26-7-7-16-11-26-11-10 0-19 4-26 11-7 7-11 16-11 26 0 10 4 19 11 26 7 7 16 11 26 11 10 0 19-4 26-11 7-7 11-16 11-26z m109 0c0-10-3-19-10-26-8-7-16-11-26-11-10 0-19 4-26 11-7 7-11 16-11 26 0 10 4 19 11 26 7 7 16 11 26 11 10 0 18-4 26-11 7-7 10-16 10-26z m-146 146c-39 0-75-6-109-20-34-13-61-31-81-53-19-23-29-47-29-73 0-21 6-42 20-61 14-19 33-36 58-50l24-14-7-28c-5-17-12-34-20-49 29 12 55 28 78 49l13 11 16-2c13-2 25-2 37-2 39 0 75 6 109 20 34 13 61 31 81 53 19 23 29 47 29 73 0 26-10 50-29 73-20 22-47 40-81 53-34 14-70 20-109 20z m256-146c0-33-11-64-34-92-23-28-54-50-93-66-40-17-83-25-129-25-13 0-27 1-41 2-38-33-82-56-132-69-9-2-20-4-32-6l-2 0c-3 0-5 1-8 3-2 2-3 5-4 8l0 0c-1 1-1 2 0 4 0 1 0 2 0 2 0 1 1 2 2 3l1 3 2 2 3 3c1 1 4 5 8 10 5 5 8 8 10 10 2 3 5 6 9 12 4 5 7 10 9 14 3 5 5 10 8 17 3 7 5 14 8 22-30 17-54 38-71 63-17 25-26 51-26 80 0 25 7 48 20 71 14 23 32 42 55 58 23 17 50 30 82 39 31 10 64 15 99 15 35 0 68-5 99-15 32-9 59-22 82-39 23-16 41-35 55-58 13-23 20-46 20-71z"/>
<glyph glyph-name="comments" unicode="&#57401;" d="M402 293c0-27-9-51-27-74-17-22-42-40-73-53-31-13-64-20-101-20-16 0-33 2-50 5-24-17-50-29-80-37-6-1-15-3-24-4l-1 0c-2 0-4 0-6 2-2 2-3 4-3 6 0 1 0 1 0 2 0 1 0 1-1 2 0 0 1 1 1 1l1 2 1 1 1 2 1 1 1 2c1 1 3 3 7 7 3 3 6 6 7 8 2 2 4 5 7 8 2 4 5 8 7 11 2 4 4 8 6 13-24 14-42 31-56 51-14 20-20 41-20 64 0 26 9 51 27 73 17 22 42 40 73 53 31 13 64 20 101 20 36 0 70-7 101-20 31-13 55-31 73-53 18-22 27-47 27-73z m110-74c0-22-7-44-20-64-14-20-32-36-56-50 2-5 4-9 6-13 2-4 4-7 7-11 3-3 5-6 6-8 2-2 4-5 8-8 3-4 5-6 6-8 1 0 1 0 2-1 0-1 1-1 1-1 0-1 1-1 1-2 0 0 1-1 1-1l1-2 0-1 0-2 0-2c0-3-2-5-4-6-1-2-4-3-6-2-9 1-18 2-24 4-30 8-56 20-80 37-17-3-34-5-50-5-52 0-97 13-135 38 11-1 19-1 25-1 31 0 60 4 88 13 29 8 54 20 76 36 24 18 42 38 55 61 12 23 19 47 19 73 0 14-2 29-7 43 25-14 44-30 59-51 14-20 21-42 21-66z"/>
<glyph glyph-name="comments-o" unicode="&#57402;" d="M201 402c-29 0-56-5-82-15-25-9-45-23-60-40-15-17-22-35-22-54 0-16 5-31 15-46 10-14 24-27 42-37l28-16-10-24c6 4 12 7 18 11l12 9 15-3c15-3 30-4 44-4 29 0 57 5 82 15 25 10 45 23 60 40 15 17 23 35 23 55 0 19-8 37-23 54-15 17-35 31-60 40-25 10-53 15-82 15z m0 37c37 0 70-7 101-20 31-13 56-31 73-53 18-22 27-47 27-73 0-27-9-51-27-74-17-22-42-40-73-53-31-13-64-20-101-20-16 0-33 2-50 5-24-17-50-29-80-37-6-1-15-3-24-4l-1 0c-2 0-4 0-6 2-2 2-3 4-3 6 0 1 0 1 0 2 0 1 0 1-1 2 0 0 1 1 1 1l1 2 1 1 1 2 1 1 1 2c1 1 3 3 7 7 3 3 6 6 7 8 2 2 4 5 7 8 2 4 5 8 7 11 2 4 4 8 6 13-24 14-42 31-56 51-14 20-20 41-20 64 0 26 9 51 27 73 17 22 42 40 73 53 31 13 64 20 101 20z m235-334c2-5 4-9 6-13 2-4 4-7 7-11 3-3 5-6 6-8 2-2 4-5 8-8 3-4 5-6 6-8 1 0 1 0 2-1 0-1 1-1 1-1 0-1 1-1 1-2 0 0 1-1 1-1l1-2 0-1 0-2 0-2c0-3-2-5-4-6-1-2-4-3-6-2-9 1-18 2-24 4-30 8-56 20-80 37-17-3-34-5-50-5-52 0-97 13-135 38 11-1 19-1 25-1 31 0 60 4 88 13 29 8 54 20 76 36 24 18 42 38 55 61 12 23 19 47 19 73 0 14-2 29-7 43 25-14 44-30 59-51 14-20 21-42 21-66 0-22-7-44-20-64-14-20-32-36-56-50z"/>
<glyph glyph-name="compass" unicode="&#57403;" d="M219 201l74 37-74 36z m110 169l0-155-146-73 0 155z m82-114c0 28-7 54-20 78-14 24-33 43-57 57-24 13-50 20-78 20-28 0-54-7-78-20-24-14-43-33-57-57-13-24-20-50-20-78 0-28 7-54 20-78 14-24 33-43 57-57 24-13 50-20 78-20 28 0 54 7 78 20 24 14 43 33 57 57 13 24 20 50 20 78z m64 0c0-40-9-77-29-110-20-34-46-60-80-80-33-20-70-29-110-29-40 0-77 9-110 29-34 20-60 46-80 80-20 33-29 70-29 110 0 40 9 77 29 110 20 34 46 60 80 80 33 20 70 29 110 29 40 0 77-9 110-29 34-20 60-46 80-80 20-33 29-70 29-110z"/>
<glyph glyph-name="compress" unicode="&#57404;" d="M256 238l0-128c0-5-2-10-5-13-4-4-8-6-13-6-5 0-10 2-13 6l-41 41-95-95c-2-2-4-3-7-3-2 0-4 1-6 3l-33 33c-2 2-3 4-3 6 0 3 1 5 3 7l95 95-41 41c-4 3-6 8-6 13 0 5 2 9 6 13 3 3 8 5 13 5l128 0c5 0 9-2 13-5 3-4 5-8 5-13z m216 192c0-3-1-5-3-7l-95-95 41-41c4-3 6-8 6-13 0-5-2-9-6-13-3-3-8-5-13-5l-128 0c-5 0-9 2-13 5-3 4-5 8-5 13l0 128c0 5 2 10 5 13 4 4 8 6 13 6 5 0 10-2 13-6l41-41 95 95c2 2 4 3 7 3 2 0 4-1 6-3l33-33c2-2 3-4 3-6z"/>
<glyph glyph-name="copyright" unicode="&#57407;" d="M365 205l0-31c0-10-3-18-10-25-7-8-16-14-27-18-11-4-22-7-34-9-11-2-23-3-33-3-39 0-72 13-98 40-26 26-40 59-40 98 0 39 13 71 39 97 26 26 58 39 97 39 7 0 14 0 22-1 8-1 16-3 26-5 10-3 19-6 27-10 8-4 14-9 19-16 6-7 8-15 8-23l0-31c0-3-1-5-4-5l-34 0c-3 0-4 2-4 5l0 20c0 8-7 14-19 19-13 5-26 7-39 7-27 0-49-9-66-26-17-18-25-40-25-68 0-29 9-53 26-71 18-19 40-29 67-29 13 0 26 3 39 7 14 5 20 11 20 19l0 20c0 1 1 3 2 3 0 1 1 2 3 2l34 0c1 0 2-1 3-2 1 0 1-2 1-3z m-109 234c-25 0-48-5-71-15-23-9-42-22-58-39-17-16-30-35-39-58-10-23-15-46-15-71 0-25 5-48 15-71 9-23 22-42 39-58 16-17 35-30 58-39 23-10 46-15 71-15 25 0 48 5 71 15 23 9 42 22 58 39 17 16 30 35 39 58 10 23 15 46 15 71 0 25-5 48-15 71-9 23-22 42-39 58-16 17-35 30-58 39-23 10-46 15-71 15z m219-183c0-40-9-77-29-110-20-34-46-60-80-80-33-20-70-29-110-29-40 0-77 9-110 29-34 20-60 46-80 80-20 33-29 70-29 110 0 40 9 77 29 110 20 34 46 60 80 80 33 20 70 29 110 29 40 0 77-9 110-29 34-20 60-46 80-80 20-33 29-70 29-110z"/>
<glyph glyph-name="creative-commons" unicode="&#57408;" d="M173 160c29 0 53 10 73 29 3 4 3 7 1 11l-13 23c-1 3-3 4-7 5-3 0-5-1-7-3l-1-1c-1-1-2-2-4-3-1-1-3-2-5-4-2-1-4-2-6-4-3-1-6-2-9-4-2-1-6-2-9-2-4-1-7-1-11-1-14 0-26 4-36 14-9 10-14 22-14 36 0 15 5 27 14 36 9 10 21 14 35 14 7 0 14-1 20-4 7-2 12-5 15-8l4-4c3-2 5-3 8-3 3 1 5 2 7 4l15 23c2 4 2 7-1 11 0 1-1 2-3 3-1 2-4 4-8 7-5 3-9 6-14 8-5 2-12 5-20 6-7 2-16 3-24 3-28 0-52-9-70-27-19-19-28-42-28-69 0-28 9-51 27-69 19-18 42-27 71-27z m180 0c29 0 53 10 73 29 3 4 3 7 1 11l-12 23c-2 3-4 4-8 5-3 0-5-1-7-3l-1-1c-1-1-2-2-4-3-1-1-3-2-5-4-2-1-4-2-6-4-3-1-6-2-9-4-2-1-6-2-9-2-4-1-7-1-11-1-14 0-26 4-36 14-9 10-14 22-14 36 0 15 5 27 14 36 9 10 21 14 35 14 7 0 14-1 20-4 7-2 12-5 15-8l4-4c3-2 5-3 8-3 3 1 5 2 7 4l15 23c2 4 2 7-1 11 0 1-1 2-3 3-1 2-4 4-8 7-5 3-9 6-14 8-5 2-12 5-20 6-7 2-16 3-24 3-28 0-52-9-70-27-19-19-28-42-28-69 0-28 9-51 27-69 19-18 42-27 71-27z m-97 306c-29 0-56-5-82-16-26-12-48-27-67-45-18-19-33-41-45-67-11-26-16-53-16-82 0-29 5-56 16-82 12-26 27-48 45-67 19-18 41-33 67-45 26-11 53-16 82-16 29 0 56 5 82 16 26 12 48 27 67 45 18 19 33 41 45 67 11 26 16 53 16 82 0 29-5 56-16 82-12 26-27 48-45 67-19 18-41 33-67 45-26 11-53 16-82 16z m0 46c35 0 68-7 99-20 32-14 59-32 82-55 23-23 41-50 55-82 13-31 20-64 20-99 0-35-7-68-20-99-14-32-32-59-55-82-23-23-50-41-82-55-31-13-64-20-99-20-35 0-68 7-99 20-32 14-59 32-82 55-23 23-41 50-55 82-13 31-20 64-20 99 0 35 7 68 20 99 14 32 32 59 55 82 23 23 50 41 82 55 31 13 64 20 99 20z"/>
<glyph glyph-name="credit-card" unicode="&#57409;" d="M485 475c12 0 23-4 32-13 9-9 13-20 13-32l0-348c0-12-4-23-13-32-9-9-20-13-32-13l-458 0c-12 0-23 4-32 13-9 9-13 20-13 32l0 348c0 12 4 23 13 32 9 9 20 13 32 13z m-458-36c-2 0-4-1-6-3-2-2-3-4-3-6l0-64 476 0 0 64c0 2-1 4-3 6-2 2-4 3-6 3z m458-366c2 0 4 1 6 3 2 2 3 4 3 6l0 174-476 0 0-174c0-2 1-4 3-6 2-2 4-3 6-3z m-430 37l0 36 73 0 0-36z m110 0l0 36 109 0 0-36z"/>
<glyph glyph-name="crop" unicode="&#57410;" d="M177 146l170 0 0 170z m-12 13l170 170-170 0z m329-22l0-55c0-2-1-5-3-6-2-2-4-3-6-3l-64 0 0-64c0-3-1-5-3-6-2-2-4-3-7-3l-54 0c-3 0-5 1-7 3-2 1-3 3-3 6l0 64-246 0c-3 0-5 1-7 3-2 1-3 4-3 6l0 247-64 0c-2 0-4 1-6 3-2 1-3 4-3 6l0 55c0 3 1 5 3 7 2 1 4 2 6 2l64 0 0 64c0 3 1 5 3 7 2 2 4 2 7 2l54 0c3 0 5 0 7-2 2-2 3-4 3-7l0-64 243 0 70 71c2 2 4 2 7 2 2 0 4 0 6-2 2-2 3-4 3-7 0-2-1-4-3-6l-70-71 0-243 64 0c2 0 4-1 6-2 2-2 3-4 3-7z"/>
</font>
</defs>
</svg>
